<?xml version="1.0" encoding="UTF-8"?>
<svg width="356px" height="303px" viewBox="0 0 356 303" version="1.1" xmlns="http://www.w3.org/2000/svg" xmlns:xlink="http://www.w3.org/1999/xlink">
    <title>Combined Shape</title>
    <g id="Page-1" stroke="none" stroke-width="1" fill="none" fill-rule="evenodd">
        <path d="M236.377459,0.518480382 L245.859559,1.17880812 L252.687506,5.92357804 L248.123764,11.3628078 L238.123764,18.5231754 L225.628395,28.6198938 L217.086202,35.4784075 L206.335101,45.5335181 L204.044,47.6534804 L203.800591,48.0585634 C197.86052,58.2745292 203.205609,70.9486927 198.123764,81.5231754 C198.130353,80.7269256 198.173369,79.8740936 198.239711,78.9775716 C197.66611,82.8530638 196.889164,86.7022851 196.209764,90.5621754 C195.209764,96.2431754 193.427398,100.766244 191.099667,106.168689 C189.107789,110.460939 186.882764,113.648175 183.123764,117.523175 C185.561764,117.459175 187.726764,116.723175 190.123764,116.523175 C194.569764,116.153175 198.117764,118.027175 202.123764,115.523175 C205.091764,118.137175 209.469764,116.043175 213.123764,116.523175 C213.985764,111.406175 215.809764,110.189175 219.123764,106.523175 C220.630764,107.633175 220.510764,107.505175 222.123764,106.523175 C223.580823,107.226467 225.341849,106.707205 227.390034,107.12695 L227.803495,107.224059 L232.816314,106.982073 C232.790314,105.136073 235.316281,106.974791 237.796083,106.468411 C247.53268,103.816642 250.928894,102.433062 255.123764,101.523175 C256.598919,101.620773 257.932252,101.620773 259.123764,101.523175 C263.373764,100.716175 272.480821,95.7201757 282.123764,93.5231754 C292.793764,89.3841754 303.666764,82.9261754 315.123764,81.2811754 C319.924764,80.5921754 325.247764,81.5231754 330.123764,81.5231754 C330.123764,91.2501754 330.097764,99.9521754 328.123764,109.523175 C326.549759,109.522997 325.146882,109.473517 323.917152,109.338264 C324.864353,109.460146 325.930808,109.518911 327.123764,109.523175 C326.331764,114.810175 321.789764,121.255175 323.879764,126.523175 C329.704764,141.207175 346.990764,149.975175 354.426764,163.523175 C357.442764,169.018175 351.807764,176.219175 347.123764,178.523175 C339.978764,161.452175 325.774764,147.887175 319.189764,130.523175 C315.790764,121.562175 316.123764,110.043175 316.123764,100.523175 C306.618764,103.123175 297.882764,109.060175 288.123764,110.523175 C287.999097,109.081259 287.742507,108.193085 287.260792,106.889674 L287.129,106.53948 L287.201553,106.755116 C289.347703,113.573172 277.191819,114.817853 272.123764,115.857175 C260.109764,118.322175 248.434764,119.057175 236.124764,118.812175 C232.301764,118.737175 227.861764,116.146175 224.202764,116.895175 C220.835764,117.585175 219.824764,120.608175 219.123764,123.523175 C234.957764,122.202175 251.825764,128.982175 266.123764,135.102175 C269.946764,136.738175 278.597764,138.980175 280.520764,142.941175 C283.401764,148.877175 277.678764,157.825175 276.123764,163.523175 C274.343956,162.26612 273.755034,161.491423 273.366298,159.808402 C274.965592,169.707179 270.063723,179.704668 266.757764,189.238175 C265.061764,194.130175 262.420764,200.354175 265.151764,205.433175 C267.521764,209.842175 273.334764,213.143175 277.123764,216.273175 C285.766764,223.411175 294.497764,230.445175 303.123764,237.604175 C307.675764,241.382175 313.432764,244.624175 315.123764,250.523175 C310.969764,251.720175 305.516764,256.005175 301.123764,254.815175 C295.344764,253.249175 290.278764,244.850175 286.547764,240.523175 C275.018764,227.153175 259.691764,215.118175 258.279764,196.523175 C257.603764,187.629175 258.222764,179.347175 259.278764,170.523175 C259.802764,166.144175 261.703764,159.844175 260.291764,155.563175 C258.626608,150.512953 252.246217,148.776398 248.383168,145.732775 L248.123764,145.523175 L253.457895,144.634597 C244.793606,145.949603 238.211847,141.675673 230.123764,138.867175 C226.963764,137.770175 222.546764,135.461175 219.139764,136.309175 C216.388764,136.995175 214.766764,139.438175 213.123764,141.523175 C216.455764,142.483175 221.112764,143.794175 223.095764,146.913175 C226.126764,151.679175 222.384764,159.944175 220.518764,164.523175 C215.322764,177.275175 203.010764,195.990175 188.123764,197.523175 C188.123764,211.890092 187.422132,226.307425 187.362192,240.621895 L187.362267,244.756246 C187.310835,250.429807 184.385905,256.222814 178.372624,253.634293 L178.141,253.531175 L182.123764,255.523175 C177.362764,265.769675 172.589614,276.020225 167.561557,286.150895 L165.875764,289.523175 C163.984764,293.278175 161.358764,300.437175 156.939764,301.815175 C152.687764,303.141175 146.131764,298.879175 142.123764,297.523175 C147.846764,288.249175 154.407764,279.420175 160.699764,270.523175 C163.87758,266.028861 166.626517,261.121011 170.436451,257.150395 C170.449108,256.941033 170.447401,256.730788 170.431764,256.521175 C170.168764,252.992175 168.029764,250.295175 168.217764,246.523175 C168.692764,236.991175 168.256764,226.884175 170.422764,217.523175 C170.71263,216.269206 171.19643,215.077674 171.737744,213.903878 C171.305117,214.421075 170.766752,214.955918 170.123764,215.523175 C169.709764,210.089175 170.094764,204.957175 170.122764,199.523175 C170.137764,196.748175 169.661764,193.341175 171.151764,190.848175 C173.461764,186.982175 178.842764,184.473175 182.123764,181.433175 C192.299308,172.003074 201.758342,160.461461 202.114569,146.077796 L202.123764,145.523175 L175.123764,144.523175 C175.122796,152.568506 174.723661,166.637876 166.017182,170.203809 C166.382126,170.591901 166.735772,171.016753 167.123764,171.523175 C162.876764,175.333175 158.801764,177.672175 153.123764,178.523175 C155.717764,174.547175 160.668764,171.897175 164.123764,168.523175 C164.55048,168.850101 164.919282,169.152641 165.257822,169.458449 C166.216425,162.685916 169.549793,156.587836 169.914764,149.523175 C170.494367,138.316576 165.097097,129.18583 159.283108,120.288827 C155.829267,117.375803 152.075771,114.960869 147.098764,114.707175 C140.368764,114.363175 136.376764,120.169175 129.123764,118.523175 C128.392335,119.774604 128.431882,119.759819 127.302224,120.419001 L127.123764,120.523175 C129.691764,119.315175 131.308764,119.163175 134.123764,119.523175 C131.659057,123.520655 129.219716,127.386957 127.359419,131.411561 C131.728122,129.357112 136.271581,126.924019 141.123764,127.523175 C139.242764,129.593175 137.735764,130.494175 135.123764,131.523175 C139.745764,133.580175 148.543764,133.121175 150.123764,138.523175 C144.009764,138.024175 138.014764,136.182175 132.123764,134.523175 C134.092764,137.916175 135.586764,140.585175 135.123764,144.523175 C131.410964,141.340509 129.39683,136.945255 127.523585,132.480545 L127.211411,131.734821 C124.885559,136.863954 123.520104,142.261619 124.253764,148.523175 C124.66723,152.057709 126.297639,155.282998 126.990442,158.77142 L127.123764,159.523175 L125.541177,158.57215 C128.608529,161.007358 130.468636,164.319872 133.308764,167.519175 C138.914764,173.833175 144.689764,177.494175 153.123764,177.523175 C150.920764,180.459175 147.290764,181.110175 144.123764,182.872175 C140.107764,185.105175 135.862764,190.228175 131.123764,190.620175 C127.402796,190.927917 122.940101,188.081445 119.467644,186.660363 L119.123764,186.523175 L120.119,181.538175 L119.123764,185.523175 C115.279764,184.840175 108.561764,183.248175 106.151764,179.874175 C104.104764,177.009175 105.681764,172.829175 104.805764,169.616175 C102.806764,162.286175 94.8807638,161.574175 89.1237638,163.523175 C88.5391055,162.172649 88.3657867,161.832571 87.581488,160.998502 C89.575328,163.358344 87.4184521,165.607228 85.0647638,167.508175 C80.3327638,171.331175 75.0717638,174.566175 70.1237638,178.102175 C65.0317638,181.740175 59.8097638,186.563175 54.1237638,189.205175 C50.8707638,190.717175 47.2397638,189.529175 44.3077638,191.880175 C40.0716638,195.279175 36.9957638,201.196175 33.7502638,205.523175 C26.7968638,214.794175 19.8849638,224.111175 13.1237638,233.523175 C9.65766377,231.593175 0.666963769,227.781175 0.0411637693,223.419175 C-0.516436231,219.532175 4.73626377,215.141175 6.99336377,212.523175 C9.63032307,209.463791 12.4754626,206.7438 15.3621584,204.028553 C18.4993954,197.716745 24.712935,192.705613 30.1237638,188.328175 C35.0123638,184.373175 39.1699638,182.295175 38.1237638,175.523175 C49.3727638,168.467175 59.0547638,159.221175 70.1237638,151.879175 C74.4337638,149.020175 82.1397638,147.604175 85.5207638,143.960175 C88.9747638,140.235175 86.3817638,131.423175 88.0137638,126.523175 C89.7057638,121.447175 92.5927638,116.492175 96.3077638,112.627175 C98.1007638,110.761175 100.726764,109.377175 102.095764,107.148175 C104.570764,103.118175 103.017764,96.1701754 104.123764,91.5231754 C106.069701,91.9672004 107.612714,92.5717737 109.208249,93.4185182 C108.884957,93.1835369 108.551273,92.9041427 108.123764,92.5231754 C111.496764,93.0211754 115.753764,95.2831754 119.119764,94.5941754 C122.649764,93.8721754 124.957764,90.1771754 126.993764,87.5241754 C129.066764,84.8221754 132.534764,81.6961754 133.469764,78.3531754 C135.012764,72.8431754 132.824764,62.8921754 131.123764,57.5231754 C134.772764,58.5421754 137.656764,60.9781754 141.123764,62.5231754 C141.297764,60.8381754 141.440764,60.0291754 142.123764,58.5231754 C142.123764,60.242045 142.136573,60.0642567 143.000589,61.3399005 L143.123764,61.5231754 L144.123764,57.5231754 C145.950764,60.9241754 145.107764,63.9131754 144.123764,67.5231754 C147.956617,63.3244107 150.684455,57.5684514 155.664714,54.7693664 L156.123764,54.5231754 L155.123764,59.5231754 C162.284764,55.3431754 169.967764,51.3031754 178.123764,49.5381754 C182.354764,48.6221754 189.303764,49.7771754 192.704764,46.9201754 C195.352764,44.6951754 195.900764,40.6501754 196.843764,37.5231754 C198.758764,31.1741754 200.754764,24.7091754 203.123764,18.5231754 C205.843851,27.4951397 196.527695,36.2440318 198.982934,46.0063533 L200.702286,34.2241803 L208.697857,16.1891881 L210.926122,8.88593834 L224.306923,2.60919864 L236.377459,0.518480382 Z M172.167331,208.014132 L172.173035,208.02321 C172.854862,209.162237 173.151748,210.160411 173.065482,211.121527 C173.462749,210.270798 173.832609,209.410174 174.123764,208.523175 C173.039691,208.312787 172.536718,208.262173 172.167331,208.014132 Z M172.449582,205.008056 C172.34898,205.180752 172.240568,205.352482 172.123764,205.523175 C172.76036,205.89525 173.069297,206.067818 173.305971,206.296278 L172.449582,205.008056 Z M40.1237638,188.523175 L40.0891917,188.848961 C39.974868,189.893113 39.8575534,190.598428 39.5707602,191.423068 C39.6806368,191.674711 39.8248236,191.954429 40.0211645,192.328166 L40.1237638,192.523175 L40.1237638,188.523175 Z M37.1237638,184.523175 C37.196444,184.837451 37.2644705,185.116941 37.332579,185.368076 C37.4207548,185.26412 37.5198022,185.154686 37.6315017,185.035237 L37.6388575,185.027785 C37.4755419,184.870129 37.3049388,184.70255 37.1237638,184.523175 Z M112.765509,181.39306 L112.978841,181.447408 C114.399577,181.783748 115.919324,181.783316 117.41451,181.70292 C115.832216,181.73913 114.304227,181.64256 112.765509,181.39306 Z M107.124,178.522175 L107.123764,178.523175 C108.139748,178.684402 108.810077,179.061209 109.414868,179.498794 C109.643498,178.693959 109.408293,178.886901 107.343902,178.559015 L107.124,178.522175 Z M42.1237638,174.523175 C41.917984,175.382555 41.8117315,176.153725 41.7873343,176.869559 C41.9781004,176.301978 42.27504,175.716107 42.6977982,175.100045 L42.1237638,174.523175 Z M264.123764,173.523175 C263.949011,174.423627 263.884491,174.923161 263.725504,175.278234 C264.416815,174.780962 265.074297,174.391895 265.837959,174.094625 L264.123764,173.523175 Z M197.262248,171.873167 L197.320774,172.013958 C197.413084,172.232694 197.519078,172.457144 197.63936,172.687354 L198.123764,172.523175 C197.798994,172.303908 197.512631,172.087112 197.262248,171.873167 Z M261.944083,152.214178 L261.937064,152.395887 C261.779703,156.440114 261.604192,160.454604 261.307764,164.523175 C261.177085,166.323164 261.35377,167.890202 261.287569,169.409947 C262.336079,163.976165 261.913954,157.87055 261.944083,152.214178 Z M107.123764,113.056175 C90.0907638,120.438175 83.4207638,154.942175 106.123764,159.523175 L111.123764,137.523175 C107.667764,136.825175 103.896764,135.365175 102.911764,131.508175 C101.482764,125.912175 107.705764,114.600175 114.108764,115.185175 C117.225764,115.470175 119.258764,118.359175 121.123764,120.523175 C121.972764,119.861175 123.260764,119.199175 123.871764,118.203175 C129.429764,109.138175 111.261764,111.263175 107.123764,113.056175 Z M206.123764,156.523175 C205.442557,156.977432 205.108697,157.270099 204.875066,157.401178 L205.123764,157.523175 L206.123764,156.523175 Z M124.123764,154.523175 L122.226148,155.281563 C122.455705,155.265935 122.697241,155.271429 122.961512,155.299371 C123.168211,155.14383 123.461039,154.961335 123.932928,154.649791 L124.123764,154.523175 Z M76.1596762,153.877125 L76.1418672,153.891358 C75.9223125,154.061389 75.6243352,154.230604 75.1237638,154.523175 C75.261828,154.615248 75.3863968,154.697268 75.4992171,154.771171 C75.5599584,154.545718 75.8055728,154.301567 76.1596762,153.877125 Z M206.123764,147.523175 C205.842792,149.840953 206.193224,149.908172 204.292282,149.55448 L204.123764,149.523175 L206.123764,150.523175 L206.123764,147.523175 Z M204.123764,144.523175 C204.181092,146.594042 203.864264,147.345638 205.401602,147.49421 L205.30959,147.481992 C204.11138,147.305635 204.246321,146.548236 204.137492,144.736882 L204.123764,144.523175 Z M256.120756,143.025652 L255.123764,143.523175 C256.420955,143.747414 256.798698,143.822403 257.754371,144.324274 C257.850702,144.086944 257.973281,143.820323 258.123764,143.523175 C257.148488,143.354584 256.692938,143.270359 256.120756,143.025652 Z M257.123764,141.523175 C256.444779,141.717976 255.929135,141.856249 255.532415,142.015097 C255.673043,142.02292 255.825119,142.047803 255.990182,142.088952 L257.123764,141.523175 Z M174.123764,139.523175 L171.123764,140.523175 C172.73012,140.358646 174.262739,140.623566 175.771354,141.064937 C175.16595,140.63176 174.611538,140.122197 174.123764,139.523175 Z M171.676325,130.313328 L171.123764,132.523175 L171.548039,132.524123 C172.82232,132.532539 172.780813,132.614531 173.940489,133.4 L174.123764,133.523175 C172.714074,132.438799 172.140077,131.590574 171.676325,130.313328 Z M171.123764,128.523175 C170.946451,128.916154 170.811077,129.2341 170.695097,129.491005 C170.890616,129.37363 171.088204,129.246164 171.292529,129.108222 C171.237904,128.923314 171.182106,128.728135 171.123764,128.523175 Z M186.123764,60.5231754 C174.766764,67.6271754 165.045764,78.8681754 158.562764,90.5231754 C156.891764,93.5281754 153.019764,99.6851754 154.479764,103.244175 C156.019776,106.998382 163.401131,107.424007 166.844804,109.357622 C167.970651,109.449983 169.072794,109.500779 170.123764,109.523175 C168.378139,106.21005 167.18183,102.86089 166.296709,99.2491019 L166.123764,98.5231754 L177.123764,98.5231754 L172.123764,87.5231754 L183.123764,85.5231754 L180.123764,75.5231754 L190.123764,71.5231754 C187.187764,69.2141754 186.941764,64.1371754 186.123764,60.5231754 Z M108.123764,106.523175 C107.18972,107.923784 107.290234,107.935535 106.405195,108.38216 L106.123764,108.523175 L106.123764,108.523175 C107.345858,108.06527 108.750863,108.028946 110.236,108.182272 C109.516594,107.769452 108.814937,107.228843 108.123764,106.523175 Z M297.137168,105.649348 L296.919638,105.666571 C296.635389,105.683825 296.339799,105.680324 296.032086,105.654988 C295.767873,105.884167 295.481707,106.165232 295.123764,106.523175 C295.852995,106.239652 296.518783,105.954531 297.137168,105.649348 Z M110.795511,102.17489 L110.575561,102.692652 C110.276336,103.372099 109.951018,104.042004 109.589178,104.706412 C109.721684,104.910115 109.890448,105.173316 110.123764,105.523175 C110.274236,104.31566 110.496553,103.231743 110.795511,102.17489 Z M167.123764,58.5231754 C154.997764,65.6071754 143.979764,73.4031754 135.127764,84.5231754 C130.833764,89.9171754 126.841764,95.5151754 126.123764,102.523175 C129.188764,102.127175 133.183764,101.930175 135.613764,99.7851754 C138.824764,96.9491754 139.899764,91.1391754 142.213764,87.5231754 C145.789764,81.9361754 150.347764,77.1311754 155.123764,72.5621754 C159.246764,68.6191754 166.336764,64.5601754 167.123764,58.5231754 Z M299.123764,101.523175 C298.729484,101.588578 298.338895,101.654743 297.952601,101.724976 C298.12074,101.789457 298.287864,101.873963 298.454366,101.979345 C298.632007,101.857936 298.847203,101.707549 299.123764,101.523175 Z M153.123764,92.5231754 C151.354356,93.3257284 150.12605,93.2501385 148.766323,92.747362 C149.554336,93.2113607 150.28426,93.7644417 151.123764,94.5231754 C152.102286,93.0558711 151.945374,93.1128465 152.975689,92.5972325 L153.123764,92.5231754 L153.123764,92.5231754 Z M153.188817,88.3079208 L152.534019,88.6774489 C152.298346,88.8131056 152.0631,88.9513099 151.828114,89.0922137 L151.744,89.1434804 L152.123764,89.5231754 C152.464408,89.0599148 152.818698,88.6589865 153.188817,88.3079208 Z M148.123764,86.5231754 C147.751689,87.1597717 147.579121,87.4687084 147.350662,87.7053826 L148.523,86.9224804 L148.123764,86.5231754 Z M198.90182,59.5424402 L198.905937,59.6169511 C199.009423,61.5536145 198.834274,63.6148563 198.968764,65.5231754 C199.094988,67.3176218 199.110717,69.0979087 199.043307,70.8674641 C199.400512,66.9836525 199.581282,62.9844357 198.90182,59.5424402 Z M164.123764,68.5231754 C163.518346,68.8055016 162.91103,69.1169077 162.303404,69.4552442 C162.553478,69.4235724 162.807773,69.4080888 163.066665,69.4109203 C163.408086,69.1198018 163.761299,68.8245888 164.123764,68.5231754 Z M187.938806,56.7474126 L188.839349,58.0973547 C188.92362,57.9007457 189.018179,57.7091897 189.123764,57.5231754 C188.484699,57.1496578 188.175839,56.977197 187.938806,56.7474126 Z" id="Combined-Shape" fill="#DDDDDD" fill-rule="nonzero"></path>
    </g>
</svg>