<?xml version="1.0" encoding="UTF-8"?>
<svg width="171px" height="138px" viewBox="0 0 171 138" version="1.1" xmlns="http://www.w3.org/2000/svg" xmlns:xlink="http://www.w3.org/1999/xlink">
    <title>Combined Shape</title>
    <g id="Page-1" stroke="none" stroke-width="1" fill="none" fill-rule="evenodd">
        <path d="M151.123764,2.61317543 C157.254764,4.81317543 164.921764,8.62517543 168.226764,14.5271754 C169.881764,17.4831754 169.461764,21.2681754 170.123764,24.5231754 C166.944764,29.2271754 166.716764,36.2461754 163.774764,41.5231754 C156.905764,53.8461754 146.234764,64.8151754 136.123764,74.4841754 C126.362764,83.8171754 116.033764,92.4131754 105.123764,100.372175 C97.0897638,106.233175 87.4127638,111.748175 81.1237638,119.523175 C84.6100874,118.388983 82.1614536,119.335873 78.9636853,120.299955 L78.5463641,120.729073 L63.9285843,126.737285 L42.6237638,132.966198 L27.3202773,136.849186 L24.9089203,136.849268 C22.8545864,137.103786 20.9025362,137.325489 18.9884825,136.850691 L13.9153488,136.849716 C9.91005742,138.320397 3.00439897,137.83631 -0.0628391689,136.639378 C2.23369075,134.420011 2.60227364,133.282381 1.04290951,133.226488 L0.929160831,133.2238 L1.23329868,133.218977 C11.2941488,132.962476 17.2341652,127.304387 21.6653752,118.906763 L21.8657638,118.523175 C29.6817638,103.407175 34.2627638,87.3071754 36.5477638,70.5231754 C37.2887638,65.0741754 36.0047638,58.5731754 38.1237638,53.5231754 C38.1237638,58.5591754 37.6887638,63.6701754 39.1237638,68.5231754 C39.1237638,66.6701754 38.8237638,67.1731754 40.1237638,66.5231754 C40.1637638,81.7271754 38.8517638,96.5011754 32.2337638,110.523175 C28.2376117,118.988538 22.1179496,126.431653 17.2150795,134.374944 L17.3791608,134.3638 L17.922201,134.027637 C44.1969405,117.627273 63.1759038,96.5054254 74.6737638,67.5231754 C78.7857638,57.1601754 81.3467638,46.4461754 83.3847638,35.5231754 C83.9557638,32.4621754 86.6567638,25.6741754 82.6897638,23.7641754 C80.5867638,22.7511754 77.9687638,24.3951754 76.1237638,25.2811754 C71.3827638,27.5581754 66.8807638,30.3021754 62.1237638,32.5231754 C62.0824257,32.2867609 62.0263204,32.0585893 61.9583605,31.8389344 L55.6701483,34.405532 L46.076811,42.6037799 L35.9047635,50.2639599 L26.5700754,59.9633204 L17.762418,69.0890956 L13.7587941,67.5484338 L16.31255,63.0980746 L22.263105,56.7331454 L31.7389332,47.7485583 L40.7231502,40.143157 L49.1258631,34.405532 L59.2700147,28.0672907 C59.2636219,28.0520356 59.2701533,28.0449902 59.2914118,28.0463241 L59.2981608,28.0468004 L59.3009399,28.006206 C59.4580297,26.7848479 66.3367785,23.2135306 69.9679629,21.4650356 L70.1237638,21.3901754 C77.9703724,17.6282358 86.8617638,10.6451754 95.1237638,6.83217543 C107.029764,1.33917543 117.285764,0.574175425 130.123764,0.522175425 C137.443764,0.493175425 144.073764,0.084175425 151.123764,2.61317543 Z M139.123764,4.52317543 C138.683764,8.22917543 136.563764,11.0461754 135.192764,14.5231754 C132.26291,21.9505079 129.649482,29.436375 126.257807,36.6690173 C125.835887,37.5460495 125.410626,38.421713 124.981355,39.2955691 C111.671513,65.4326122 64.0519073,114.6813 51.4816142,124.841033 L55.3518393,123.767681 C56.0350172,123.362915 56.7204086,122.955417 57.4078385,122.545206 C65.2438505,118.706305 72.7361669,113.859216 80.1237638,109.334175 C106.733764,93.0331754 129.646764,73.9941754 149.119764,49.5231754 L149.133471,49.5063784 C149.662255,48.847302 150.18409,48.1862261 150.698764,47.5231754 C150.721723,47.4935977 150.744672,47.4640116 150.767612,47.4344171 C154.895926,42.1512564 158.907076,36.5637723 161.839662,30.5499336 L162.367764,29.5231754 C163.566764,27.1581754 165.427764,24.3521754 165.454764,21.6131754 C165.477778,19.274393 163.843606,17.26922 162.0941,15.6039801 C160.490079,13.6689919 158.322551,12.0503455 156.109188,10.7312132 C151.848466,7.81021546 146.875198,5.51747327 141.877729,4.77183128 C140.959133,4.63477316 140.039719,4.54998682 139.123764,4.52317543 Z M91.0617638,18.0521754 C87.3597638,23.0931754 88.6057638,33.4431754 87.5097638,39.5231754 C85.0657638,53.0791754 80.8447638,66.0171754 75.0957638,78.5231754 C70.5967638,88.3101754 64.2927638,98.0241754 57.6987638,106.523175 C53.8667638,111.462175 48.7647638,115.857175 46.1237638,121.523175 C57.0237638,116.908175 65.8997638,105.748175 74.1237638,97.5231754 C90.9047638,80.7411754 105.440764,62.1341754 117.273764,41.5231754 C123.652764,30.4111754 129.506764,19.1691754 132.123764,6.52225031 L131.312614,6.52193373 C118.473535,6.51378802 99.5903054,6.43925876 91.0617638,18.0521754 Z" id="Combined-Shape" fill="#DDDDDD" fill-rule="nonzero"></path>
    </g>
</svg>