<?xml version="1.0" encoding="UTF-8"?>
<svg width="356px" height="376px" viewBox="0 0 356 376" version="1.1" xmlns="http://www.w3.org/2000/svg" xmlns:xlink="http://www.w3.org/1999/xlink">
    <title>Combined Shape</title>
    <g id="Page-1" stroke="none" stroke-width="1" fill="none" fill-rule="evenodd" fill-opacity="0.1">
        <path d="M194.108764,1.35107543 C202.791764,6.36087543 205.425764,20.5877754 207.472764,29.5231754 C209.224764,37.1692754 210.783764,45.6591754 210.783764,53.5231754 C210.783764,62.2381754 209.064764,70.8751754 211.123764,79.5231754 C212.505591,79.188187 212.626377,79.0783344 213.509013,79.3328236 C216.057727,78.2181246 218.257206,77.8503374 221.090792,78.1868818 C219.694191,77.8920763 218.482836,77.4439262 217.123764,76.5231754 C224.381764,73.5651754 231.211764,71.9371754 239.123764,72.6931754 C244.038764,73.1621754 250.272764,75.5971754 255.123764,74.3901754 C263.828764,72.2241754 271.861764,63.6451754 280.123764,59.8321754 C292.029764,54.3391754 302.285764,53.5741754 315.123764,53.5221754 C322.443764,53.4931754 329.073764,53.0841754 336.123764,55.6131754 C342.254764,57.8131754 349.921764,61.6251754 353.226764,67.5271754 C354.881764,70.4831754 354.461764,74.2681754 355.123764,77.5231754 C351.944764,82.2271754 351.716764,89.2461754 348.774764,94.5231754 C341.905764,106.846175 331.234764,117.815175 321.123764,127.484175 C311.362764,136.817175 301.033764,145.413175 290.123764,153.372175 C282.089764,159.233175 272.412764,164.748175 266.123764,172.523175 C271.410764,170.803175 276.644764,168.466175 282.123764,167.523175 C282.390835,167.912351 282.656122,168.290162 282.91671,168.662044 C282.607268,167.983622 282.336068,167.277923 282.123764,166.523175 C292.793764,162.384175 303.666764,155.926175 315.123764,154.281175 C319.924764,153.592175 325.247764,154.523175 330.123764,154.523175 C330.123764,164.250175 330.097764,172.952175 328.123764,182.523175 C326.549759,182.522997 325.146882,182.473517 323.917152,182.338264 C324.864353,182.460146 325.930808,182.518911 327.123764,182.523175 C326.331764,187.810175 321.789764,194.255175 323.879764,199.523175 C329.704764,214.207175 346.990764,222.975175 354.426764,236.523175 C357.442764,242.018175 351.807764,249.219175 347.123764,251.523175 C339.978764,234.452175 325.774764,220.887175 319.189764,203.523175 C315.790764,194.562175 316.123764,183.043175 316.123764,173.523175 C306.618764,176.123175 297.882764,182.060175 288.123764,183.523175 C287.999097,182.081259 287.742507,181.193085 287.260792,179.889674 L287.129,179.5398 L287.201553,179.755116 C289.347703,186.573172 277.191819,187.817853 272.123764,188.857175 C260.109764,191.322175 248.434764,192.057175 236.124764,191.812175 C232.301764,191.737175 227.861764,189.146175 224.202764,189.895175 C220.835764,190.585175 219.824764,193.608175 219.123764,196.523175 C234.957764,195.202175 251.825764,201.982175 266.123764,208.102175 C269.946764,209.738175 278.597764,211.980175 280.520764,215.941175 C283.401764,221.877175 277.678764,230.825175 276.123764,236.523175 C274.343956,235.26612 273.755034,234.491423 273.366298,232.808402 C274.965592,242.707179 270.063723,252.704668 266.757764,262.238175 C265.061764,267.130175 262.420764,273.354175 265.151764,278.433175 C267.521764,282.842175 273.334764,286.143175 277.123764,289.273175 C285.766764,296.411175 294.497764,303.445175 303.123764,310.604175 C307.675764,314.382175 313.432764,317.624175 315.123764,323.523175 C310.969764,324.720175 305.516764,329.005175 301.123764,327.815175 C295.344764,326.249175 290.278764,317.850175 286.547764,313.523175 C275.018764,300.153175 259.691764,288.118175 258.279764,269.523175 C257.603764,260.629175 258.222764,252.347175 259.278764,243.523175 C259.802764,239.144175 261.703764,232.844175 260.291764,228.563175 C258.626608,223.512953 252.246217,221.776398 248.383168,218.732775 L248.123764,218.523175 L253.457895,217.634597 C244.793606,218.949603 238.211847,214.675673 230.123764,211.867175 C226.963764,210.770175 222.546764,208.461175 219.139764,209.309175 C216.388764,209.995175 214.766764,212.438175 213.123764,214.523175 C216.455764,215.483175 221.112764,216.794175 223.095764,219.913175 C226.126764,224.679175 222.384764,232.944175 220.518764,237.523175 C215.322764,250.275175 203.010764,268.990175 188.123764,270.523175 C188.123764,284.890092 187.422132,299.307425 187.362192,313.621895 L187.362267,317.756246 C187.310835,323.429807 184.385905,329.222814 178.372624,326.634293 L178.123764,326.523175 L182.123764,328.523175 C176.833764,339.908175 171.528764,351.298175 165.875764,362.523175 C163.984764,366.278175 161.358764,373.437175 156.939764,374.815175 C152.687764,376.141175 146.131764,371.879175 142.123764,370.523175 C147.846764,361.249175 154.407764,352.420175 160.699764,343.523175 C163.87758,339.028861 166.626517,334.121011 170.436451,330.150395 C170.449108,329.940988 170.4474,329.730765 170.431764,329.521175 C170.168764,325.992175 168.029764,323.295175 168.217764,319.523175 C168.692764,309.991175 168.256764,299.884175 170.422764,290.523175 C170.71263,289.269206 171.19643,288.077674 171.737744,286.903878 C171.305117,287.421075 170.766752,287.955918 170.123764,288.523175 C169.709764,283.089175 170.094764,277.957175 170.122764,272.523175 C170.137764,269.748175 169.661764,266.341175 171.151764,263.848175 C173.461764,259.982175 178.842764,257.473175 182.123764,254.433175 C192.299308,245.003074 201.758342,233.461461 202.114569,219.077796 L202.123764,218.523175 L175.123764,217.523175 C175.122796,225.568506 174.723661,239.637876 166.017182,243.203809 C166.382126,243.591901 166.735772,244.016753 167.123764,244.523175 C162.876764,248.333175 158.801764,250.672175 153.123764,251.523175 C155.717764,247.547175 160.668764,244.897175 164.123764,241.523175 C164.55048,241.850101 164.919282,242.152641 165.257822,242.458449 C166.216425,235.685916 169.549793,229.587836 169.914764,222.523175 C170.494367,211.316576 165.097097,202.18583 159.283108,193.288827 C155.829267,190.375803 152.075771,187.960869 147.098764,187.707175 C140.368764,187.363175 136.376764,193.169175 129.123764,191.523175 C128.392335,192.774604 128.431882,192.759819 127.302224,193.419001 L127.123764,193.523175 C129.691764,192.315175 131.308764,192.163175 134.123764,192.523175 C131.659057,196.520655 129.219716,200.386957 127.359419,204.411561 C131.728122,202.357112 136.271581,199.924019 141.123764,200.523175 C139.242764,202.593175 137.735764,203.494175 135.123764,204.523175 C139.745764,206.580175 148.543764,206.121175 150.123764,211.523175 C144.009764,211.024175 138.014764,209.182175 132.123764,207.523175 C134.092764,210.916175 135.586764,213.585175 135.123764,217.523175 C131.410964,214.340509 129.39683,209.945255 127.523585,205.480545 L127.211411,204.734821 C124.885559,209.863954 123.520104,215.261619 124.253764,221.523175 C124.66723,225.057709 126.297639,228.282998 126.990442,231.77142 L127.123764,232.523175 L125.541177,231.57215 C128.608529,234.007358 130.468636,237.319872 133.308764,240.519175 C138.914764,246.833175 144.689764,250.494175 153.123764,250.523175 C150.920764,253.459175 147.290764,254.110175 144.123764,255.872175 C140.107764,258.105175 135.862764,263.228175 131.123764,263.620175 C127.402796,263.927917 122.940101,261.081445 119.467644,259.660363 L119.123764,259.523175 L120.119,254.538175 L119.123764,258.523175 C115.279764,257.840175 108.561764,256.248175 106.151764,252.874175 C104.104764,250.009175 105.681764,245.829175 104.805764,242.616175 C102.806764,235.286175 94.8807638,234.574175 89.1237638,236.523175 C88.5391055,235.172649 88.3657867,234.832571 87.581488,233.998502 C89.575328,236.358344 87.4184521,238.607228 85.0647638,240.508175 C80.3327638,244.331175 75.0717638,247.566175 70.1237638,251.102175 C65.0317638,254.740175 59.8097638,259.563175 54.1237638,262.205175 C50.8707638,263.717175 47.2397638,262.529175 44.3077638,264.880175 C40.0716638,268.279175 36.9957638,274.196175 33.7502638,278.523175 C26.7968638,287.794175 19.8849638,297.111175 13.1237638,306.523175 C9.65766377,304.593175 0.666963767,300.781175 0.0411637672,296.419175 C-0.516436233,292.532175 4.73626377,288.141175 6.99336377,285.523175 C9.63032307,282.463791 12.4754626,279.7438 15.3621584,277.028553 C18.4993954,270.716745 24.712935,265.705613 30.1237638,261.328175 C35.0123638,257.373175 39.1699638,255.295175 38.1237638,248.523175 C49.3727638,241.467175 59.0547638,232.221175 70.1237638,224.879175 C74.4337638,222.020175 82.1397638,220.604175 85.5207638,216.960175 C88.9747638,213.235175 86.3817638,204.423175 88.0137638,199.523175 C89.7057638,194.447175 92.5927638,189.492175 96.3077638,185.627175 C98.1007638,183.761175 100.726764,182.377175 102.095764,180.148175 C104.570764,176.118175 103.017764,169.170175 104.123764,164.523175 C106.070108,164.967293 107.613358,165.572026 109.209248,166.419049 C108.885642,166.18411 108.551712,165.904534 108.123764,165.523175 C111.496764,166.021175 115.753764,168.283175 119.119764,167.594175 C122.649764,166.872175 124.957764,163.177175 126.993764,160.524175 C129.066764,157.822175 132.534764,154.696175 133.469764,151.353175 C135.012764,145.843175 132.824764,135.892175 131.123764,130.523175 C132.63425,130.944986 134.013654,131.6096 135.357587,132.353312 C132.393339,129.937926 132.108066,126.716046 131.547764,122.523175 C130.455764,114.342175 131.123764,105.767175 131.123764,97.5231754 C131.123764,70.8241754 136.444764,43.5001754 154.423764,22.5231754 C161.267764,14.5388754 169.573764,6.93647543 179.123764,2.34337543 C183.415764,0.279375425 189.687764,-1.19932457 194.108764,1.35107543 Z M172.167331,281.014132 L172.173035,281.02321 C172.854862,282.162237 173.151748,283.160411 173.065482,284.121527 C173.462749,283.270798 173.832609,282.410174 174.123764,281.523175 C173.039691,281.312787 172.536718,281.262173 172.167331,281.014132 Z M172.449582,278.008056 C172.34898,278.180752 172.240568,278.352482 172.123764,278.523175 C172.76036,278.89525 173.069297,279.067818 173.305971,279.296278 L172.449582,278.008056 Z M40.1237638,261.523175 L40.0891917,261.848961 C39.974868,262.893113 39.8575534,263.598428 39.5707602,264.423068 C39.6806367,264.674711 39.8248236,264.954429 40.0211645,265.328166 L40.1237638,265.523175 L40.1237638,261.523175 Z M37.1237638,257.523175 C37.196444,257.837451 37.2644705,258.116941 37.332579,258.368076 C37.4207548,258.26412 37.5198022,258.154686 37.6315017,258.035237 L37.6388575,258.027785 C37.4755419,257.870129 37.3049388,257.70255 37.1237638,257.523175 Z M112.765509,254.39306 L112.978841,254.447408 C114.399577,254.783748 115.919324,254.783316 117.41451,254.70292 C115.832216,254.73913 114.304227,254.64256 112.765509,254.39306 Z M107.124,251.522175 L107.123764,251.523175 C108.139748,251.684402 108.810077,252.061209 109.414868,252.498794 C109.643498,251.693959 109.408293,251.886901 107.343902,251.559015 L107.124,251.522175 Z M42.1237638,247.523175 C41.917984,248.382555 41.8117315,249.153725 41.7873343,249.869559 C41.9781004,249.301978 42.27504,248.716107 42.6977982,248.100045 L42.1237638,247.523175 Z M264.123764,246.523175 C263.949011,247.423627 263.884491,247.923161 263.725504,248.278234 C264.416815,247.780962 265.074297,247.391895 265.837959,247.094625 L264.123764,246.523175 Z M197.262248,244.873167 L197.320774,245.013958 C197.413084,245.232694 197.519078,245.457144 197.63936,245.687354 L198.123764,245.523175 C197.798994,245.303908 197.512631,245.087112 197.262248,244.873167 Z M261.944083,225.214178 L261.937064,225.395887 C261.779703,229.440114 261.604192,233.454604 261.307764,237.523175 C261.177085,239.323164 261.35377,240.890202 261.287569,242.409947 C262.336079,236.976165 261.913954,230.87055 261.944083,225.214178 Z M107.123764,186.056175 C90.0907638,193.438175 83.4207638,227.942175 106.123764,232.523175 L111.123764,210.523175 C107.667764,209.825175 103.896764,208.365175 102.911764,204.508175 C101.482764,198.912175 107.705764,187.600175 114.108764,188.185175 C117.225764,188.470175 119.258764,191.359175 121.123764,193.523175 C121.972764,192.861175 123.260764,192.199175 123.871764,191.203175 C129.429764,182.138175 111.261764,184.263175 107.123764,186.056175 Z M206.123764,229.523175 C205.442557,229.977432 205.108697,230.270099 204.875066,230.401178 L205.123764,230.523175 L206.123764,229.523175 Z M124.123764,227.523175 L122.226148,228.281563 C122.455705,228.265935 122.697241,228.271429 122.961512,228.299371 C123.168211,228.14383 123.461039,227.961335 123.932928,227.649791 L124.123764,227.523175 Z M76.1596762,226.877125 L76.1418672,226.891358 C75.9223125,227.061389 75.6243352,227.230604 75.1237638,227.523175 C75.261828,227.615248 75.3863968,227.697268 75.4992171,227.771171 C75.5599584,227.545718 75.8055728,227.301567 76.1596762,226.877125 Z M206.123764,220.523175 C205.842792,222.840953 206.193224,222.908172 204.292282,222.55448 L204.123764,222.523175 L206.123764,223.523175 L206.123764,220.523175 Z M204.123764,217.523175 C204.181092,219.594042 203.864264,220.345638 205.401602,220.49421 L205.30959,220.481992 C204.11138,220.305635 204.246321,219.548236 204.137492,217.736882 L204.123764,217.523175 Z M256.120756,216.025652 L255.123764,216.523175 C256.420955,216.747414 256.798698,216.822403 257.754371,217.324274 C257.850702,217.086944 257.973281,216.820323 258.123764,216.523175 C257.148488,216.354584 256.692938,216.270359 256.120756,216.025652 Z M257.123764,214.523175 C256.444779,214.717976 255.929135,214.856249 255.532415,215.015097 C255.673043,215.02292 255.825119,215.047803 255.990182,215.088952 L257.123764,214.523175 Z M174.123764,212.523175 L171.123764,213.523175 C172.73012,213.358646 174.262739,213.623566 175.771354,214.064937 C175.16595,213.63176 174.611538,213.122197 174.123764,212.523175 Z M171.676325,203.313328 L171.123764,205.523175 L171.548039,205.524123 C172.82232,205.532539 172.780813,205.614531 173.940489,206.4 L174.123764,206.523175 C172.714074,205.438799 172.140077,204.590574 171.676325,203.313328 Z M171.123764,201.523175 C170.946451,201.916154 170.811077,202.2341 170.695097,202.491005 C170.890616,202.37363 171.088204,202.246164 171.292529,202.108222 C171.237904,201.923314 171.182106,201.728135 171.123764,201.523175 Z M183.820046,189.759103 L183.781564,189.804344 C183.577729,190.041582 183.358701,190.280988 183.123764,190.523175 C184.064839,190.498471 184.965237,190.37364 185.854004,190.218159 C185.089235,190.086119 184.400391,189.931507 183.820046,189.759103 Z M201.123764,188.523175 C200.674117,188.991355 200.014636,189.3734 199.207729,189.679124 C199.992155,189.529018 200.782473,189.265532 201.58922,188.833291 C201.433979,188.736308 201.278852,188.633202 201.123764,188.523175 Z M261.123764,78.2811754 C256.382764,80.5581754 251.880764,83.3021754 247.123764,85.5231754 C247.017172,84.9135694 246.927097,84.3464166 246.859153,83.8089304 C246.693283,84.5907826 246.452087,85.3338051 246.057764,86.0051754 C244.788764,88.1641754 242.119764,89.4971754 240.122764,90.8671754 C235.346764,94.1441754 229.823764,100.629175 224.123764,101.523175 C224.980193,107.463075 226.755979,114.788117 223.819515,120.366824 C223.908433,120.753765 224.010248,121.139277 224.123764,121.523175 C224.123764,119.670175 223.823764,120.173175 225.123764,119.523175 C225.163764,134.727175 223.851764,149.501175 217.233764,163.523175 C213.212764,172.041175 207.041764,179.524175 202.123764,187.523175 C228.812764,171.053175 248.059764,149.798175 259.673764,120.523175 C263.785764,110.160175 266.346764,99.4461754 268.384764,88.5231754 C268.955764,85.4621754 271.656764,78.6741754 267.689764,76.7641754 C265.586764,75.7511754 262.968764,77.3951754 261.123764,78.2811754 Z M206.138764,118.869175 C204.551223,119.80752 202.983007,119.849189 201.339083,119.72355 C202.203749,119.87431 203.006261,120.123659 204.123764,120.523175 C197.669764,130.829175 203.294764,143.763175 198.123764,154.523175 C198.130354,153.726863 198.173375,152.87396 198.239727,151.97736 C197.66611,155.853064 196.889164,159.702285 196.209764,163.562175 L196.099568,164.183218 C195.133128,169.575066 193.822185,175.167761 188.438884,177.398249 L188.123764,177.523175 L191.123764,176.523175 L187.123764,187.523175 C197.618764,187.428175 202.346764,180.260175 206.865764,171.523175 C214.681764,156.407175 219.262764,140.307175 221.547764,123.523175 C222.174494,118.91447 221.352621,113.553206 222.36632,108.953808 C219.43938,103.508888 209.401977,116.940382 206.138764,118.869175 Z M186.123764,133.523175 C174.766764,140.627175 165.045764,151.868175 158.562764,163.523175 C156.891764,166.528175 153.019764,172.685175 154.479764,176.244175 C156.019776,179.998382 163.401131,180.424007 166.844804,182.357622 C167.970651,182.449983 169.072794,182.500779 170.123764,182.523175 C168.378139,179.21005 167.18183,175.86089 166.296709,172.249102 L166.123764,171.523175 L177.123764,171.523175 L172.123764,160.523175 L183.123764,158.523175 L180.123764,148.523175 L190.123764,144.523175 C187.187764,142.214175 186.941764,137.137175 186.123764,133.523175 Z M184.123764,178.523175 C183.973164,179.394375 183.889884,179.850495 183.699396,180.345783 C183.81677,180.726165 183.9576,181.11632 184.123764,181.523175 C184.285473,180.588353 184.369564,180.130863 184.592108,179.589938 C184.446772,179.241878 184.289981,178.886801 184.123764,178.523175 Z M235.56874,178.725805 L235.533724,178.746344 C235.300636,178.881872 235.066615,179.014482 234.831631,179.144009 L234.123764,179.523175 L235.123764,181.523175 C235.105008,180.191507 235.201779,179.601915 235.56874,178.725805 Z M108.123764,179.523175 C107.18972,180.923784 107.290234,180.935535 106.405195,181.38216 L106.123764,181.523175 C107.346678,181.064963 108.752748,181.028898 110.238988,181.182581 C109.518541,180.770952 108.815897,180.229822 108.123764,179.523175 Z M297.137168,178.649348 L296.919638,178.666571 C296.635389,178.683825 296.339799,178.680324 296.032086,178.654988 C295.767873,178.884167 295.481707,179.165232 295.123764,179.523175 C295.852995,179.239652 296.518783,178.954531 297.137168,178.649348 Z M110.795511,175.17489 L110.575561,175.692652 C110.276255,176.372284 109.950841,177.04237 109.588882,177.706956 C109.721684,177.910115 109.890448,178.173316 110.123764,178.523175 C110.274236,177.31566 110.496553,176.231743 110.795511,175.17489 Z M324.123764,57.5231754 C323.683764,61.2291754 321.563764,64.0461754 320.192764,67.5231754 C317.26291,74.9505079 314.649482,82.436375 311.257807,89.6690173 C310.71805,90.7918251 310.172097,91.9119957 309.619785,93.0292874 L309.31025,93.6484055 C297.356319,117.3862 281.577245,139.205099 261.97057,157.118492 C254.233893,163.509402 245.377896,169.040144 238.963854,176.51515 C238.561053,176.803267 238.155732,177.084645 237.747719,177.358329 C242.669173,176.694058 246.96396,174.663897 252.007968,174.426505 C250.150746,174.398585 248.330781,174.324955 246.557611,173.690318 L246.252,173.5728 L247.862676,172.698517 C253.74921,169.452505 259.467184,165.798936 265.123764,162.334175 C290.221942,146.959301 312.031269,129.148703 330.767385,106.641959 C332.437943,104.644568 334.081993,102.606048 335.698764,100.523175 C335.725076,100.489277 335.751376,100.455368 335.777664,100.421448 C339.902515,95.1420771 343.909485,89.5588327 346.839662,83.5499336 L347.367764,82.5231754 C348.566764,80.1581754 350.427764,77.3521754 350.454764,74.6131754 C350.477778,72.274393 348.843606,70.26922 347.0941,68.6039801 C345.488871,66.6675347 343.319286,65.0479075 341.104187,63.7282332 C336.061805,60.2716964 330.021095,57.6957993 324.123764,57.5231754 Z M167.123764,131.523175 C154.997764,138.607175 143.979764,146.403175 135.127764,157.523175 C130.833764,162.917175 126.841764,168.515175 126.123764,175.523175 C129.188764,175.127175 133.183764,174.930175 135.613764,172.785175 C138.824764,169.949175 139.899764,164.139175 142.213764,160.523175 C145.789764,154.936175 150.347764,150.131175 155.123764,145.562175 C159.246764,141.619175 166.336764,137.560175 167.123764,131.523175 Z M299.123764,174.523175 C298.729484,174.588578 298.338895,174.654743 297.952601,174.724976 C298.12074,174.789457 298.287864,174.873963 298.454366,174.979345 C298.632007,174.857936 298.847203,174.707549 299.123764,174.523175 Z M316.312614,59.5219337 L314.21499,59.5218393 C301.493977,59.5389271 284.13666,60.0569671 276.061764,71.0521754 C272.359764,76.0931754 273.605764,86.4431754 272.509764,92.5231754 C270.065764,106.079175 265.844764,119.017175 260.095764,131.523175 C255.596764,141.310175 249.292764,151.024175 242.698764,159.523175 C238.866764,164.462175 233.764764,168.857175 231.123764,174.523175 C242.023764,169.908175 250.899764,158.748175 259.123764,150.523175 C275.904764,133.741175 290.440764,115.134175 302.273764,94.5231754 C308.652764,83.4111754 314.506764,72.1691754 317.123764,59.5222503 L316.312614,59.5219337 Z M153.123764,165.523175 C151.354356,166.325728 150.12605,166.250138 148.766323,165.747362 C149.554336,166.211361 150.28426,166.764442 151.123764,167.523175 C152.102286,166.055871 151.945374,166.112847 152.975689,165.597232 L153.123764,165.523175 Z M153.188817,161.307921 L152.534019,161.677449 C152.298346,161.813106 152.0631,161.95131 151.828114,162.092214 L151.744,162.144 L152.123764,162.523175 C152.464408,162.059915 152.818698,161.658987 153.188817,161.307921 Z M148.123764,159.523175 C147.751159,160.160679 147.57863,160.469588 147.349685,160.706394 L148.523,159.923 L148.123764,159.523175 Z M198.901782,132.542252 L198.905937,132.616951 C199.009423,134.553615 198.834274,136.614856 198.968764,138.523175 C199.094988,140.317622 199.110717,142.097909 199.043307,143.867464 C199.400518,139.983582 199.581288,135.98429 198.901782,132.542252 Z M164.123764,141.523175 C163.518346,141.805502 162.91103,142.116908 162.303404,142.455244 C162.553478,142.423572 162.807773,142.408089 163.066665,142.41092 C163.408086,142.119802 163.761299,141.824589 164.123764,141.523175 Z M207.123764,61.5231754 C180.928764,62.2901754 162.979764,92.6711754 153.432764,113.523175 C150.511764,119.901175 149.311764,127.925175 145.123764,133.523175 C145.123764,131.726175 145.109764,132.002175 144.123764,130.523175 C145.950764,133.924175 145.107764,136.913175 144.123764,140.523175 C147.956617,136.324411 150.684455,130.568451 155.664714,127.769366 L156.114556,127.52747 C156.34239,122.019177 161.100933,117.004589 164.123764,112.523175 C167.063764,117.624175 159.646764,124.845175 156.123764,128.523175 C156.104338,128.202974 156.101141,127.884398 156.112982,127.567454 L155.123764,132.523175 C162.284764,128.343175 169.967764,124.303175 178.123764,122.538175 C182.354764,121.622175 189.303764,122.777175 192.704764,119.920175 C195.352764,117.695175 195.900764,113.650175 196.843764,110.523175 C198.751977,104.196676 200.740617,97.7549979 203.098591,91.5889556 C188.030882,92.8274322 176.546549,105.888602 166.123764,115.523175 C165.201764,110.534175 168.040764,107.177175 171.297764,103.523175 C177.081987,97.0321424 190.540513,84.2679728 200.271066,87.132892 L198.123764,85.5231754 C203.313764,77.8951754 207.038764,71.0091754 207.123764,61.5231754 Z M141.123764,131.523175 L141.123764,135.523175 C141.259219,134.211441 141.375887,133.430586 141.743154,132.438503 C141.623157,132.249804 141.461227,132.022828 141.246939,131.70645 L141.123764,131.523175 Z M179.123764,8.61347543 C169.296764,14.5194754 161.765764,24.0977754 155.478764,33.5231754 C145.476764,48.5181754 141.079764,65.1061754 137.719764,82.5231754 C136.576764,88.4441754 134.535764,94.4681754 134.266764,100.523175 C133.781061,111.458457 137.002212,122.44525 137.122269,133.368199 C137.807476,133.771171 138.496587,134.176616 139.200625,134.561401 L139.197,134.601 L139.206182,134.498885 C141.840198,102.380217 149.339711,68.0147123 166.818764,40.5231754 C172.410764,31.7288754 179.844764,24.8901754 187.121764,17.5231754 C189.275764,15.3428754 193.499764,12.1272754 192.063764,8.58257543 C189.661764,2.65437543 182.736764,6.44207543 179.123764,8.61347543 Z M144.123764,130.523175 C143.641951,131.784297 143.227451,132.720615 142.60501,133.760596 C142.710517,133.918343 142.84104,134.104341 143.000589,134.339901 L143.123764,134.523175 L144.123764,130.523175 Z M187.938806,129.747413 L188.839349,131.097355 C188.92362,130.900746 189.018179,130.70919 189.123764,130.523175 C188.484699,130.149658 188.175839,129.977197 187.938806,129.747413 Z M223.064764,111.539175 L223.064134,111.571842 C223.056187,112.755914 223.066572,113.938007 223.125019,115.113824 L223.127475,114.95398 C223.140318,114.008922 223.178087,113.043164 223.11542,112.101167 L223.064764,111.539175 Z M198.123764,20.5231754 C189.506764,22.1905754 182.148764,29.7541754 177.023764,36.5231754 C169.449764,46.5251754 165.088764,58.8891754 160.699764,70.5231754 C156.565764,81.4851754 152.061764,92.7341754 151.123764,104.523175 C154.937764,100.825175 156.925764,95.8981754 159.872764,91.5231754 C163.714764,85.8201754 168.337764,80.4361754 173.138764,75.5231754 C178.909764,69.6171754 185.156764,64.6451754 192.123764,60.2181754 C195.166764,58.2851754 200.983764,56.8721754 203.095764,53.9631754 C204.699764,51.7551754 204.123764,48.0831754 204.123764,45.5231754 C204.124764,36.1324754 201.679764,29.0750754 198.123764,20.5231754 Z M204.123764,91.5231754 C203.794504,91.5382494 203.466945,91.5590098 203.141062,91.5853024 L203.123764,91.5231754 C203.343659,92.2484792 203.484893,92.9723252 203.560046,93.6953666 C203.771992,92.963766 203.963053,92.2393752 204.123764,91.5231754 Z M204.609803,87.0311766 L202.649869,88.2064246 C202.809321,88.3065052 202.967307,88.4120484 203.123764,88.5231754 C203.709341,87.8737908 204.156453,87.4122879 204.609803,87.0311766 Z M225.752867,77.3003862 L224.79,78.0228004 L225.123764,78.5231754 C225.371196,77.9956677 225.563847,77.6071444 225.752867,77.3003862 Z M233.993236,77.3982953 L234.263276,77.445348 C235.008676,77.5827282 235.746451,77.7411264 236.468873,77.9464449 C236.997898,77.8342748 237.548263,77.6912049 238.123764,77.5231754 C236.632127,77.5180111 235.276805,77.5404433 233.993236,77.3982953 Z M244.923528,75.39032 L245.128113,75.4787847 C246.113411,75.9197422 247.013707,76.4872602 247.7926,77.2025317 C247.893844,76.9820324 248.004441,76.7555119 248.123764,76.5231754 C247.087349,76.0839347 246.01636,75.7033343 244.923528,75.39032 Z M229.973467,76.1012307 L229.876988,76.1448327 C229.644271,76.2546198 229.413396,76.3699455 229.18451,76.4909133 L229.223915,76.5240686 L229.261,76.554 L229.813031,76.6769223 C230.735291,76.869341 231.669276,77.0155408 232.60034,77.1645953 C231.708241,76.9561732 230.840471,76.6256327 229.973467,76.1012307 Z" id="Combined-Shape" fill="#000000" fill-rule="nonzero"></path>
    </g>
</svg>