<?xml version="1.0" encoding="UTF-8"?>
<svg width="82px" height="149px" viewBox="0 0 82 149" version="1.1" xmlns="http://www.w3.org/2000/svg" xmlns:xlink="http://www.w3.org/1999/xlink">
    <title>Combined Shape</title>
    <g id="Page-1" stroke="none" stroke-width="1" fill="none" fill-rule="evenodd">
        <path d="M64.1087638,1.35107543 C72.7917638,6.36087543 75.4257638,20.5877754 77.4727638,29.5231754 C79.2247638,37.1692754 80.7837638,45.6591754 80.7837638,53.5231754 C80.7837638,62.2381754 81.5888963,65.7246454 81.5690283,72.3793853 C80.9424242,74.7569151 81.0809903,78.342823 80.1818388,80.6943716 L80.1325121,81.308 L80.1660463,81.7550137 L80.0659955,82.4204158 C80.0500508,82.7807047 80.0398138,83.1348364 80.0352847,83.482811 L80.0335934,84.1422227 L79.8095121,84.159 L79.1925174,88.3343574 L77.0356428,102.174158 L75.9728928,107.669935 L73.0247967,114.789279 L70.5244933,119.54281 L67.2376233,120.548434 L66.4541134,117.022713 L70.5244933,104.523175 L71.9610979,99.7222512 L73.3100799,92.9075489 L71.9610979,90.7434721 C62.7141866,94.3200403 55.7624465,98.1302691 51.1058776,102.174158 C44.1210242,108.239992 35.7405526,113.804543 35.9475218,114.789279 C36.154491,115.774016 29.4722417,107.454445 60.0984114,88.3343574 C63.6960226,86.8245135 66.8219096,85.2117252 69.4760723,83.4959927 C73.9498384,76.6449858 77.046352,70.1623313 77.1237638,61.5231754 C50.9287638,62.2901754 32.9797638,92.6711754 23.4327638,113.523175 C20.7455288,119.39075 19.5148561,126.65141 16.0742519,132.13464 L14.1237638,140.523175 L5.5389576,148.504307 L4.12376377,139.823172 C2.96053993,136.630766 2.33097132,133.276232 2.23505793,129.75957 C2.13914455,126.242908 1.70129595,123.686083 0.921512145,122.089096 L0.921512145,122.089096 L1.50051214,122.143 L1.40953574,121.40521 C0.515110875,113.563314 1.12376377,105.392448 1.12376377,97.5231754 C1.12376377,70.8241754 6.44476377,43.5001754 24.4237638,22.5231754 C31.2677638,14.5388754 39.5737638,6.93647543 49.1237638,2.34337543 C53.4157638,0.279375425 59.6877638,-1.19932457 64.1087638,1.35107543 Z M49.1237638,8.61347543 C39.2967638,14.5194754 31.7657638,24.0977754 25.4787638,33.5231754 C15.4767638,48.5181754 11.0797638,65.1061754 7.71976377,82.5231754 C6.57676377,88.4441754 4.53576377,94.4681754 4.26676377,100.523175 C3.78104608,111.458791 7.00240854,122.445921 7.12228013,133.369199 L8.77263796,135.296701 L9.31162569,133.242357 C12.0373119,101.4859 19.5674424,67.6565302 36.8187638,40.5231754 C42.4107638,31.7288754 49.8447638,24.8901754 57.1217638,17.5231754 C59.2757638,15.3428754 63.4997638,12.1272754 62.0637638,8.58257543 C59.6617638,2.65437543 52.7367638,6.44207543 49.1237638,8.61347543 Z M68.1237638,20.5231754 C59.5067638,22.1905754 52.1487638,29.7541754 47.0237638,36.5231754 C39.4497638,46.5251754 35.0887638,58.8891754 30.6997638,70.5231754 C26.5657638,81.4851754 22.0617638,92.7341754 21.1237638,104.523175 C24.9377638,100.825175 26.9257638,95.8981754 29.8727638,91.5231754 C33.7147638,85.8201754 38.3377638,80.4361754 43.1387638,75.5231754 C48.9097638,69.6171754 55.1567638,64.6451754 62.1237638,60.2181754 C65.1667638,58.2851754 70.9837638,56.8721754 73.0957638,53.9631754 C74.6997638,51.7551754 74.1237638,48.0831754 74.1237638,45.5231754 C74.1247638,36.1324754 71.6797638,29.0750754 68.1237638,20.5231754 Z" id="Combined-Shape" fill="#DDDDDD" fill-rule="nonzero"></path>
    </g>
</svg>