<?xml version="1.0" encoding="UTF-8"?>
<svg width="170px" height="38px" viewBox="0 0 170 38" version="1.1" xmlns="http://www.w3.org/2000/svg" xmlns:xlink="http://www.w3.org/1999/xlink">
    <title>Logo_Iberdrola_Horizontal-Positivo</title>
    <defs>
        <linearGradient x1="41.5439482%" y1="21.5942871%" x2="61.7224284%" y2="83.9082547%" id="linearGradient-1">
            <stop stop-color="#D0CF00" offset="3%"></stop>
            <stop stop-color="#BFC504" offset="18%"></stop>
            <stop stop-color="#93AB10" offset="48%"></stop>
            <stop stop-color="#5D8A1E" offset="80%"></stop>
        </linearGradient>
        <radialGradient cx="-4.16641781%" cy="-28.3773112%" fx="-4.16641781%" fy="-28.3773112%" r="282.338727%" gradientTransform="translate(-0.041664,-0.283773),scale(1.000000,0.539267),translate(0.041664,0.283773)" id="radialGradient-2">
            <stop stop-color="#D5D733" offset="19%"></stop>
            <stop stop-color="#ACBC2C" offset="35%"></stop>
            <stop stop-color="#81A124" offset="54%"></stop>
            <stop stop-color="#679020" offset="68%"></stop>
            <stop stop-color="#5D8A1E" offset="77%"></stop>
        </radialGradient>
        <radialGradient cx="-3.62076434%" cy="-27.4206833%" fx="-3.62076434%" fy="-27.4206833%" r="236.840553%" gradientTransform="translate(-0.036208,-0.274207),scale(1.000000,0.620635),translate(0.036208,0.274207)" id="radialGradient-3">
            <stop stop-color="#E5ECF9" offset="0%"></stop>
            <stop stop-color="#E1EAF8" offset="13%"></stop>
            <stop stop-color="#D7E4F5" offset="25%"></stop>
            <stop stop-color="#C4DAF0" offset="37%"></stop>
            <stop stop-color="#ABCCE9" offset="48%"></stop>
            <stop stop-color="#8ABAE0" offset="58%"></stop>
            <stop stop-color="#61A4D5" offset="69%"></stop>
            <stop stop-color="#328BC8" offset="79%"></stop>
            <stop stop-color="#0070BA" offset="89%"></stop>
        </radialGradient>
        <radialGradient cx="-8.7859947%" cy="-116.751175%" fx="-8.7859947%" fy="-116.751175%" r="589.794108%" gradientTransform="translate(-0.087860,-1.167512),scale(1.000000,0.446886),translate(0.087860,1.167512)" id="radialGradient-4">
            <stop stop-color="#FFFFFF" offset="0%"></stop>
            <stop stop-color="#E9F0F9" offset="5%"></stop>
            <stop stop-color="#D5E2F4" offset="10%"></stop>
            <stop stop-color="#C7D8F0" offset="17%"></stop>
            <stop stop-color="#BFD2EE" offset="25%"></stop>
            <stop stop-color="#BCD0ED" offset="38%"></stop>
            <stop stop-color="#8FB9E1" offset="47%"></stop>
            <stop stop-color="#4392CC" offset="63%"></stop>
            <stop stop-color="#1279BF" offset="74%"></stop>
            <stop stop-color="#0070BA" offset="80%"></stop>
        </radialGradient>
        <radialGradient cx="-3.70601347%" cy="-27.4206833%" fx="-3.70601347%" fy="-27.4206833%" r="236.838515%" gradientTransform="translate(-0.037060,-0.274207),scale(1.000000,0.620630),translate(0.037060,0.274207)" id="radialGradient-5">
            <stop stop-color="#FFED00" offset="14%"></stop>
            <stop stop-color="#FFE800" offset="16%"></stop>
            <stop stop-color="#FFD700" offset="26%"></stop>
            <stop stop-color="#FFCD00" offset="37%"></stop>
            <stop stop-color="#FFCA00" offset="50%"></stop>
            <stop stop-color="#FBB800" offset="58%"></stop>
            <stop stop-color="#F28801" offset="83%"></stop>
            <stop stop-color="#EE7601" offset="95%"></stop>
        </radialGradient>
        <radialGradient cx="-9.4461095%" cy="-118.315348%" fx="-9.4461095%" fy="-118.315348%" r="600.370798%" gradientTransform="translate(-0.094461,-1.183153),scale(1.000000,0.442550),translate(0.094461,1.183153)" id="radialGradient-6">
            <stop stop-color="#FFED00" offset="0%"></stop>
            <stop stop-color="#FFE900" offset="1%"></stop>
            <stop stop-color="#FED500" offset="9%"></stop>
            <stop stop-color="#FDC700" offset="17%"></stop>
            <stop stop-color="#FCBF00" offset="28%"></stop>
            <stop stop-color="#FCBC00" offset="45%"></stop>
            <stop stop-color="#FBB800" offset="46%"></stop>
            <stop stop-color="#F59B00" offset="56%"></stop>
            <stop stop-color="#F18701" offset="66%"></stop>
            <stop stop-color="#EF7A01" offset="76%"></stop>
            <stop stop-color="#EE7601" offset="85%"></stop>
        </radialGradient>
    </defs>
    <g id="ES" stroke="none" stroke-width="1" fill="none" fill-rule="evenodd">
        <g id="Menu_1600_ES_Luz-Deplegado" transform="translate(-164.000000, -69.000000)" fill-rule="nonzero">
            <g id="Menu-Hogares-A" transform="translate(0.000000, -1.000000)">
                <g id="Menu-1" transform="translate(0.000000, 49.334445)">
                    <g id="Logo" transform="translate(164.500000, 21.000000)">
                        <g id="Logo_Iberdrola_Horizontal-Positivo" transform="translate(0.000000, 0.500000)">
                            <path d="M134.426661,11.4371774 C140.013216,11.4371774 142.515371,15.3460484 142.515371,19.2191129 C142.515371,22.9758065 140.028145,27.0040323 134.426661,27.0040323 C128.825177,27.0040323 126.320035,23.0921774 126.320035,19.2191129 C126.320035,15.3460484 128.825177,11.4371774 134.426661,11.4371774 Z M51.1598233,11.6490323 L51.1598233,26.7921774 L48.0395936,26.7921774 L48.0395936,11.6490323 L51.1598233,11.6490323 Z M79.8450353,11.6370968 L79.8450353,13.7079032 L72.1833039,13.7079032 L72.1833039,17.9330645 L79.4897173,17.9330645 L79.4897173,19.9919355 L72.1833039,19.9919355 L72.1982332,24.7333065 L80.0212014,24.7333065 L80.0212014,26.7921774 L69.0630742,26.7921774 L69.0630742,11.6370968 L79.8450353,11.6370968 Z M103.272138,11.6370968 C108.336166,11.6370968 111.483269,14.5583065 111.486254,19.2429839 C111.486254,24.1066935 108.410813,26.7921774 102.827244,26.7921774 L102.827244,26.7921774 L97.1331979,26.7921774 L97.1331979,11.6370968 Z M61.0699117,11.6490323 C64.4469258,11.6490323 65.9398587,13.3916129 65.9398587,15.1192742 C65.9398587,17.0975806 64.4290106,18.0912097 63.3242403,18.5596774 C64.7932862,18.9087903 67.1640636,19.8845161 67.1640636,22.5341935 C67.1640636,23.8083065 66.6534806,26.7921774 61.9387986,26.7921774 L61.9387986,26.7921774 L54.5726678,26.7921774 L54.5726678,11.6490323 Z M162.15341,11.6370968 L168.895495,26.7921774 L166.620265,26.7921774 C165.563269,26.7921774 165.330371,26.2401613 165.127332,25.7537903 C165.127332,25.7537903 164.351007,23.9187097 164.231572,23.6203226 L164.231572,23.6203226 L157.098339,23.6203226 L155.903993,26.7921774 L152.604611,26.7921774 L158.740565,11.6370968 L162.15341,11.6370968 Z M147.52864,11.6370968 L147.52864,24.7333065 L152.279152,24.7333065 L152.279152,26.7921774 L144.405424,26.7921774 L144.405424,11.6370968 L147.52864,11.6370968 Z M119.987014,11.6370968 C123.140088,11.6370968 124.791272,13.7437097 124.791272,15.8145161 C124.791272,18.4701613 122.78477,19.4578226 121.638198,19.8069355 C123.184876,20.7020968 124.038834,22.1045161 125.107774,24.4677419 L125.107774,24.4677419 L126.188657,26.7891935 L123.758163,26.7891935 C122.807076,26.7891935 122.541758,26.354777 122.34276,25.922547 L122.26523,25.7508065 C122.047261,25.2704032 121.417244,23.7784677 121.417244,23.7784677 C120.685707,22.0179839 120.109435,20.6245161 118.679205,20.4007258 C117.523675,20.2246774 117.28182,19.7174194 117.28182,19.3295161 C117.28182,18.6372581 117.881979,18.2284677 118.930018,18.2284677 C120.548357,18.2284677 121.554594,17.3512097 121.554594,15.9547581 C121.554594,15.1162903 121.202261,13.7049194 118.837456,13.7049194 L118.837456,13.7049194 L116.374117,13.7049194 L116.374117,26.7891935 L113.256873,26.7891935 L113.256873,11.6370968 Z M89.2923145,11.6370968 C92.4453887,11.6370968 94.0935866,13.7437097 94.0935866,15.8145161 C94.0935866,18.4701613 92.0900707,19.4578226 90.9405124,19.8069355 C92.4871908,20.7020968 93.3411484,22.1045161 94.4190459,24.4677419 L94.4190459,24.4677419 L95.5029152,26.7891935 L93.0754064,26.7891935 C92.1216857,26.7891935 91.858382,26.354777 91.6598945,25.922547 L91.5824735,25.7508065 C91.3645053,25.2704032 90.7344876,23.7784677 90.7344876,23.7784677 C89.9999647,22.0179839 89.4236926,20.6245161 87.9964488,20.4007258 C86.8409187,20.2246774 86.5960777,19.7174194 86.5960777,19.3295161 C86.5960777,18.6372581 87.1962367,18.2284677 88.2442756,18.2284677 C89.8656007,18.2284677 90.8718375,17.3512097 90.8718375,15.9547581 C90.8718375,15.1162903 90.5195053,13.7049194 88.1517138,13.7049194 L88.1517138,13.7049194 L85.6943463,13.7049194 L85.6943463,26.7891935 L82.5591873,26.7891935 L82.5591873,11.6370968 Z M60.2219258,13.7079032 L57.6899117,13.7079032 L57.6988693,24.7303226 L60.3861484,24.7303226 C61.9806007,24.7303226 63.8109364,24.4558065 63.8109364,22.3193548 C63.8109364,20.9020161 62.595689,19.8755645 60.929576,19.8755645 L60.929576,19.8755645 L60.2069965,19.8755645 C58.7260071,19.863629 58.5677562,19.1445161 58.5677562,18.846129 C58.5677562,18.1926613 59.1679152,17.8166935 60.2219258,17.8166935 C61.9268551,17.8166935 62.7061661,16.6917742 62.7061661,15.6414516 C62.7061661,14.7104839 62.0522615,13.7079032 60.2219258,13.7079032 L60.2219258,13.7079032 Z M102.755583,13.6959677 L100.253428,13.6959677 L100.253428,24.721371 L102.800371,24.721371 C106.21023,24.721371 108.24659,22.6595161 108.24659,19.2071774 C108.24659,15.7070968 106.24606,13.6959677 102.755583,13.6959677 L102.755583,13.6959677 Z M134.426661,13.8958871 C131.330318,13.8958871 129.553728,15.8354032 129.553728,19.2191129 C129.553728,22.6028226 131.330318,24.5453226 134.426661,24.5453226 C137.51106,24.5453226 139.275707,22.5998387 139.275707,19.2191129 C139.275707,15.8383871 137.523004,13.8958871 134.426661,13.8958871 Z M160.466396,14.7045161 C160.069276,15.7578226 158.110548,20.9437903 157.952297,21.3555645 L157.952297,21.3555645 L163.267138,21.3555645 Z" id="Combined-Shape" fill="#5D8A1E"></path>
                            <path d="M15.4787279,0 C14.5799823,11.3983871 0.492667845,10.6225806 0.298586572,21.483871 C0.268727915,23.0712903 0.943533569,25.2823387 2.735053,27.0726613 C3.33888771,27.6713591 4.03061367,28.1744624 4.78634276,28.5645968 C4.26522202,31.3384949 4.16156401,34.1746144 4.47879859,36.9791129 L6.19268551,36.8866129 C5.61615163,34.3019108 5.48588419,31.6377537 5.80750883,29.0091935 C12.9795583,31.6916935 24.2064134,25.5091129 15.4787279,0 Z" id="Path" fill="url(#linearGradient-1)"></path>
                            <path d="M6.40766784,23.31 C5.24915194,21.483871 4.03987633,17.9032258 4.10257951,15.4355645 L4.10257951,15.4355645 C4.71345099,17.8445023 5.63589001,20.1636038 6.84659011,22.3342742 C7.72106499,20.5752361 8.71883884,18.8801538 9.83245583,17.2616935 C8.6590106,15.4862903 8.36042403,12.58 8.36042403,12.0100806 C8.36042403,12.0100806 8.36042403,12.0100806 8.37833922,12.0100806 C8.84006448,13.5743231 9.50352086,15.0718702 10.3519965,16.465 C11.3637573,14.9882795 12.2937566,13.4572462 13.1378092,11.8787903 C12.609311,10.7956452 12.2599647,9.10080645 12.2957951,8.54879032 L12.2957951,8.54879032 C12.6022305,9.39540208 13.0494209,10.1842719 13.6185336,10.8821774 C14.4534267,9.28430224 15.0815191,7.58677819 15.4876855,5.83048387 C15.7758501,3.8974309 15.7728308,1.93215961 15.4787279,0 C14.5799823,11.3983871 0.492667845,10.6225806 0.298586572,21.483871 C0.268727915,23.0712903 0.943533569,25.2823387 2.735053,27.0726613 C3.33888771,27.6713591 4.03061367,28.1744624 4.78634276,28.5645968 C5.13796578,26.7603562 5.68149256,24.9988254 6.40766784,23.31 L6.40766784,23.31 Z" id="Path" fill="url(#radialGradient-2)"></path>
                            <path d="M26.460742,0 C25.5649823,11.3983871 11.4776678,10.6225806 11.2806007,21.483871 C11.2537279,23.0712903 11.9255477,25.2823387 13.7170671,27.0726613 C19.835106,33.183629 36.5917845,29.6119355 26.460742,0 Z" id="Path" fill="url(#radialGradient-3)"></path>
                            <path d="M11.2806007,21.483871 C11.2537279,23.0712903 11.9255477,25.2823387 13.7170671,27.0726613 C13.9320495,27.2845161 14.1589753,27.4844355 14.3948587,27.6694355 C17.4882155,25.1510484 19.5365194,19.9770161 18.2764841,11.168629 C14.7412191,13.6810484 11.3761484,16.211371 11.2806007,21.483871 Z" id="Path" fill="url(#radialGradient-4)"></path>
                            <path d="M37.5711484,0 C36.6753887,11.3983871 22.5850883,10.6225806 22.3910071,21.483871 C22.3611484,23.0712903 23.0329682,25.2823387 24.8274735,27.0726613 C30.9425265,33.183629 47.7021908,29.6119355 37.5711484,0 Z" id="Path" fill="url(#radialGradient-5)"></path>
                            <path d="M22.3939929,21.483871 C22.3641343,23.0712903 23.0359541,25.2823387 24.8304594,27.0726613 C25.0196223,27.2670765 25.2189594,27.4513401 25.4276325,27.6246774 C28.4791873,25.0943548 30.5036042,19.9591129 29.2704417,11.2551613 C25.7799647,13.7258065 22.4835689,16.2680645 22.3939929,21.483871 Z" id="Path" fill="url(#radialGradient-6)"></path>
                        </g>
                    </g>
                </g>
            </g>
        </g>
    </g>
</svg>