<svg width="3439" height="1896" viewBox="0 0 3439 1896" fill="none" xmlns="http://www.w3.org/2000/svg">
<path d="M4147.46 -434.289H0V1895.19H4147.46V-434.289Z" fill="url(#paint0_radial)"/>
<path opacity="0.4" d="M3275.78 745.459L3254.79 728.044L3232.86 744.511L3250.28 723.526L3233.81 701.594L3255.55 718.254L3276.73 702.542L3260.06 722.774L3275.78 745.459Z" fill="white"/>
<path opacity="0.6" d="M2609.64 342.913L2593.51 329.53L2576.65 342.185L2590.04 326.057L2577.38 309.2L2594.09 322.006L2610.37 309.929L2597.56 325.478L2609.64 342.913Z" fill="white"/>
<path opacity="0.6" d="M3243.67 300.527L3230.98 289.997L3217.72 299.954L3228.25 287.266L3218.3 274.006L3231.44 284.079L3244.24 274.579L3234.17 286.812L3243.67 300.527Z" fill="white"/>
<path opacity="0.6" d="M2620.4 677.456L2611.45 670.028L2602.1 677.051L2609.52 668.1L2602.5 658.745L2611.77 665.853L2620.81 659.15L2613.7 667.779L2620.4 677.456Z" fill="white"/>
<path opacity="0.6" d="M2830.14 800.708L2814.01 787.325L2797.16 799.979L2810.54 783.851L2797.89 766.995L2814.59 779.8L2830.87 767.724L2818.07 783.272L2830.14 800.708Z" fill="white"/>
<path opacity="0.4" d="M2819.15 43.1188L2803.02 29.7342L2786.16 42.3901L2799.55 26.2623L2786.89 9.40466L2803.6 22.2114L2819.88 10.1345L2807.07 25.6833L2819.15 43.1188Z" fill="white"/>
<path opacity="0.93" d="M2830.12 340.601L2826.17 337.324L2822.04 340.422L2825.32 336.475L2822.22 332.349L2826.31 335.483L2830.29 332.528L2827.16 336.333L2830.12 340.601Z" fill="white"/>
<path opacity="0.93" d="M3173.25 474.049L3165.67 467.764L3157.76 473.706L3164.04 466.134L3158.1 458.219L3165.94 464.232L3173.59 458.561L3167.58 465.863L3173.25 474.049Z" fill="white"/>
<path opacity="0.93" d="M2755.05 550.444L2751.1 547.168L2746.98 550.266L2750.25 546.318L2747.16 542.193L2751.24 545.327L2755.23 542.371L2752.09 546.176L2755.05 550.444Z" fill="white"/>
<path opacity="0.93" d="M2986.22 1051.17L2982.27 1047.89L2978.15 1050.99L2981.42 1047.04L2978.33 1042.92L2982.41 1046.05L2986.4 1043.1L2983.26 1046.9L2986.22 1051.17Z" fill="white"/>
<path opacity="0.93" d="M3004.39 600.26L2998.48 595.359L2992.31 599.993L2997.21 594.088L2992.57 587.916L2998.69 592.604L3004.65 588.183L2999.96 593.875L3004.39 600.26Z" fill="white"/>
<path opacity="0.6" d="M1236.15 716.686L1220.02 703.302L1203.16 715.958L1216.55 699.829L1203.89 682.972L1220.6 695.778L1236.88 683.701L1224.07 699.251L1236.15 716.686Z" fill="white"/>
<path opacity="0.6" d="M2042.61 274.936L2029.93 264.407L2016.67 274.362L2027.19 261.676L2017.24 248.416L2030.38 258.489L2043.19 248.989L2033.11 261.22L2042.61 274.936Z" fill="white"/>
<path opacity="0.6" d="M2335.39 560.155L2319.26 546.771L2302.4 559.427L2315.79 543.299L2303.13 526.441L2319.84 539.248L2336.12 527.171L2323.31 542.72L2335.39 560.155Z" fill="white"/>
<path opacity="0.4" d="M1445.66 416.892L1429.53 403.507L1412.67 416.162L1426.06 400.034L1413.4 383.178L1430.11 395.983L1446.39 383.906L1433.58 399.455L1445.66 416.892Z" fill="white"/>
<path opacity="0.93" d="M2243.24 180.231L2239.29 176.956L2235.16 180.054L2238.44 176.106L2235.34 171.981L2239.43 175.115L2243.41 172.159L2240.28 175.964L2243.24 180.231Z" fill="white"/>
<path opacity="0.6" d="M2640.47 1332.7L2641.99 1349.11L2658.41 1351.45L2641.99 1352.98L2639.66 1369.39L2637.49 1352.98L2621.72 1350.64L2637.49 1349.11L2640.47 1332.7Z" fill="white"/>
<path opacity="0.4" d="M2267.66 951.232L2265.72 930.364L2244.85 927.393L2265.72 925.452L2268.69 904.584L2271.45 925.452L2291.5 928.424L2271.45 930.364L2267.66 951.232Z" fill="white"/>
<path opacity="0.93" d="M2812.97 1259.8L2813.88 1269.6L2823.67 1270.99L2813.88 1271.9L2812.48 1281.7L2811.19 1271.9L2801.77 1270.51L2811.19 1269.6L2812.97 1259.8Z" fill="white"/>
<path opacity="0.93" d="M2586.33 944.941L2587.56 958.116L2600.73 959.992L2587.56 961.216L2585.68 974.392L2583.94 961.216L2571.28 959.341L2583.94 958.116L2586.33 944.941Z" fill="white"/>
<path opacity="0.93" d="M1990.14 679.591L1984.23 674.691L1978.06 679.324L1982.96 673.419L1978.33 667.247L1984.45 671.935L1990.41 667.514L1985.72 673.207L1990.14 679.591Z" fill="white"/>
<path opacity="0.93" d="M1775.87 460.514L1765.69 452.063L1755.05 460.053L1763.5 449.871L1755.51 439.228L1766.06 447.313L1776.34 439.688L1768.25 449.506L1775.87 460.514Z" fill="white"/>
<path opacity="0.4" d="M1087.38 356.533L1104.8 335.548L1088.33 313.616L1109.32 331.031L1131.25 314.564L1114.59 336.301L1130.3 357.481L1110.07 340.819L1087.38 356.533Z" fill="white"/>
<path opacity="0.6" d="M474.925 289.478L465.975 282.05L456.62 289.073L464.047 280.122L457.024 270.767L466.296 277.874L475.329 271.172L468.223 279.801L474.925 289.478Z" fill="white"/>
<path opacity="0.6" d="M684.667 412.73L668.538 399.345L651.682 412.001L665.066 395.874L652.411 379.016L669.117 391.823L685.396 379.746L672.589 395.294L684.667 412.73Z" fill="white"/>
<path opacity="0.93" d="M1027.77 86.0711L1020.2 79.786L1012.28 85.7285L1018.57 78.1562L1012.62 70.2413L1020.47 76.2538L1028.11 70.5827L1022.1 77.8848L1027.77 86.0711Z" fill="white"/>
<path opacity="0.93" d="M609.574 162.466L605.627 159.19L601.501 162.288L604.776 158.34L601.68 154.215L605.768 157.349L609.753 154.393L606.618 158.199L609.574 162.466Z" fill="white"/>
<path opacity="0.93" d="M840.743 663.192L836.796 659.915L832.67 663.013L835.946 659.066L832.848 654.94L836.937 658.074L840.922 655.119L837.788 658.923L840.743 663.192Z" fill="white"/>
<path opacity="0.93" d="M858.909 212.281L853.004 207.381L846.831 212.015L851.732 206.11L847.099 199.938L853.215 204.626L859.175 200.205L854.486 205.897L858.909 212.281Z" fill="white"/>
<path opacity="0.93" d="M1410.66 148.454L1400.48 140.004L1389.83 147.995L1398.28 137.812L1390.29 127.169L1400.84 135.254L1411.12 127.629L1403.03 137.446L1410.66 148.454Z" fill="white"/>
<path opacity="0.6" d="M1623.91 657.899L1637.3 641.771L1624.64 624.914L1640.77 638.298L1657.63 625.644L1644.82 642.35L1656.9 658.628L1641.35 645.822L1623.91 657.899Z" fill="white"/>
<path opacity="0.6" d="M881.836 762.823L871.308 775.511L881.263 788.771L868.575 778.242L855.316 788.198L865.389 775.056L855.889 762.25L868.121 772.323L881.836 762.823Z" fill="white"/>
<path opacity="0.6" d="M1951.76 413.51L1938.38 429.638L1951.03 446.495L1934.9 433.11L1918.05 445.766L1930.85 429.059L1918.78 412.781L1934.32 425.587L1951.76 413.51Z" fill="white"/>
<path opacity="0.6" d="M189.913 172.177L173.784 158.793L156.928 171.449L170.313 155.321L157.657 138.463L174.363 151.27L190.642 139.193L177.835 154.742L189.913 172.177Z" fill="white"/>
<path opacity="0.4" d="M1564.35 45.6786L1548.22 32.2941L1531.36 44.9488L1544.75 28.821L1532.09 11.9645L1548.8 24.77L1565.08 12.6932L1552.27 28.2419L1564.35 45.6786Z" fill="white"/>
<path opacity="0.93" d="M1575.32 343.159L1571.37 339.884L1567.24 342.981L1570.52 339.034L1567.42 334.908L1571.51 338.042L1575.5 335.086L1572.36 338.892L1575.32 343.159Z" fill="white"/>
<path opacity="0.93" d="M1875.63 17.9758L1869.34 25.5493L1875.29 33.4642L1867.71 27.1791L1859.8 33.1216L1865.81 25.2767L1860.14 17.6344L1867.44 23.6469L1875.63 17.9758Z" fill="white"/>
<path opacity="0.93" d="M1817.25 286.039L1813.97 289.987L1817.07 294.112L1813.12 290.836L1809 293.934L1812.13 289.844L1809.17 285.861L1812.98 288.995L1817.25 286.039Z" fill="white"/>
<path opacity="0.93" d="M3095.63 129.97L3085.45 121.521L3074.81 129.511L3083.26 119.329L3075.27 108.687L3085.81 116.77L3096.09 109.146L3088.01 118.964L3095.63 129.97Z" fill="white"/>
<path opacity="0.6" d="M3271.52 82.9684L3258.13 99.0962L3270.79 115.953L3254.66 102.568L3237.8 115.224L3250.61 98.5171L3238.53 82.2385L3254.08 95.0452L3271.52 82.9684Z" fill="white"/>
<path opacity="0.93" d="M2614.65 144.895L2611.37 148.843L2614.47 152.968L2610.52 149.692L2606.4 152.79L2609.53 148.7L2606.58 144.717L2610.38 147.851L2614.65 144.895Z" fill="white"/>
<path opacity="0.93" d="M2170.71 395.818L2167.43 399.765L2170.53 403.891L2166.58 400.614L2162.46 403.712L2165.59 399.623L2162.64 395.639L2166.44 398.774L2170.71 395.818Z" fill="white"/>
<path opacity="0.93" d="M2574.84 499.565L2571.56 503.512L2574.66 507.638L2570.71 504.361L2566.59 507.459L2569.72 503.37L2566.77 499.386L2570.57 502.52L2574.84 499.565Z" fill="white"/>
<path opacity="0.93" d="M3247.99 1089.47L3244.71 1093.42L3247.81 1097.55L3243.86 1094.27L3239.74 1097.37L3242.87 1093.28L3239.91 1089.3L3243.72 1092.43L3247.99 1089.47Z" fill="white"/>
<path opacity="0.93" d="M1879.98 834.932L1876.7 838.879L1879.8 843.005L1875.85 839.729L1871.73 842.827L1874.86 838.737L1871.9 834.754L1875.71 837.888L1879.98 834.932Z" fill="white"/>
<path opacity="0.93" d="M1022.83 721.999L1017.73 722.474L1017 727.582L1016.52 722.474L1011.42 721.747L1016.52 721.073L1017.25 716.165L1017.73 721.073L1022.83 721.999Z" fill="white"/>
<path opacity="0.6" d="M571.378 1092.93L584.066 1103.46L597.325 1093.5L586.797 1106.19L596.752 1119.45L583.61 1109.38L570.805 1118.88L580.878 1106.64L571.378 1092.93Z" fill="white"/>
<path opacity="0.4" d="M159.314 450.119L172.699 433.991L160.043 417.134L176.171 430.519L193.028 417.863L180.221 434.57L192.298 450.848L176.75 438.042L159.314 450.119Z" fill="white"/>
<path opacity="0.93" d="M641.803 919.406L649.375 925.69L657.291 919.748L651.006 927.321L656.949 935.236L649.104 929.222L641.46 934.893L647.474 927.593L641.803 919.406Z" fill="white"/>
<path opacity="0.93" d="M389.099 671.008L380.649 681.189L388.639 691.832L378.456 683.382L367.814 691.372L375.899 680.824L368.275 670.547L378.091 678.632L389.099 671.008Z" fill="white"/>
<path opacity="0.93" d="M2093.31 17.7696L2087.41 12.8693L2081.24 17.503L2086.14 11.5979L2081.5 5.42493L2087.62 10.114L2093.58 5.69272L2088.89 11.3855L2093.31 17.7696Z" fill="white"/>
<path opacity="0.93" d="M120.36 268.214L107.184 269.439L105.309 282.613L104.083 269.439L90.9088 267.563L104.083 265.821L105.959 253.163L107.184 265.821L120.36 268.214Z" fill="white"/>
<path opacity="0.15" d="M462.229 747.974C700.747 747.974 894.105 554.617 894.105 316.098C894.105 77.5794 700.747 -115.778 462.229 -115.778C223.71 -115.778 30.3525 77.5794 30.3525 316.098C30.3525 554.617 223.71 747.974 462.229 747.974Z" fill="#E5EDD4"/>
<path opacity="0.15" d="M462.229 588.757C612.814 588.757 734.887 466.683 734.887 316.098C734.887 165.513 612.814 43.4395 462.229 43.4395C311.643 43.4395 189.57 165.513 189.57 316.098C189.57 466.683 311.643 588.757 462.229 588.757Z" fill="#E5EDD4"/>
<path opacity="0.15" d="M176.859 22.4447C212.082 -12.7791 212.082 -69.8881 176.859 -105.112C141.635 -140.336 84.5257 -140.336 49.302 -105.112C14.0782 -69.8881 14.0782 -12.7791 49.302 22.4447C84.5257 57.6684 141.635 57.6684 176.859 22.4447Z" fill="#E5EDD4"/>
<path opacity="0.15" d="M261.301 44.581C269.802 9.44979 248.215 -25.9217 213.084 -34.4234C177.953 -42.9252 142.581 -21.3378 134.079 13.7934C125.578 48.9246 147.165 84.296 182.296 92.7978C217.427 101.3 252.799 79.7121 261.301 44.581Z" fill="#E5EDD4"/>
<path d="M462.229 483.276C554.559 483.276 629.407 408.428 629.407 316.098C629.407 223.768 554.559 148.92 462.229 148.92C369.899 148.92 295.05 223.768 295.05 316.098C295.05 408.428 369.899 483.276 462.229 483.276Z" fill="#E5EDD4"/>
<path d="M370.546 308.86C383.204 308.86 393.466 296.978 393.466 282.32C393.466 267.662 383.204 255.78 370.546 255.78C357.887 255.78 347.625 267.662 347.625 282.32C347.625 296.978 357.887 308.86 370.546 308.86Z" fill="#DBE3CC"/>
<path d="M499.626 259.399C520.28 259.399 537.023 246.437 537.023 230.447C537.023 214.457 520.28 201.494 499.626 201.494C478.972 201.494 462.229 214.457 462.229 230.447C462.229 246.437 478.972 259.399 499.626 259.399Z" fill="#DBE3CC"/>
<path d="M491.785 393.305C500.113 393.305 506.864 384.123 506.864 372.797C506.864 361.471 500.113 352.289 491.785 352.289C483.456 352.289 476.705 361.471 476.705 372.797C476.705 384.123 483.456 393.305 491.785 393.305Z" fill="#DBE3CC"/>
<path d="M403.117 429.496C416.442 429.496 427.244 419.774 427.244 407.781C427.244 395.789 416.442 386.067 403.117 386.067C389.792 386.067 378.99 395.789 378.99 407.781C378.99 419.774 389.792 429.496 403.117 429.496Z" fill="#DBE3CC"/>
<path d="M453.181 322.13C458.178 322.13 462.229 318.079 462.229 313.082C462.229 308.085 458.178 304.034 453.181 304.034C448.184 304.034 444.133 308.085 444.133 313.082C444.133 318.079 448.184 322.13 453.181 322.13Z" fill="#DBE3CC"/>
<path d="M609.404 372.797C618.066 372.797 625.087 361.455 625.087 347.463C625.087 333.472 618.066 322.13 609.404 322.13C600.743 322.13 593.722 333.472 593.722 347.463C593.722 361.455 600.743 372.797 609.404 372.797Z" fill="#DBE3CC"/>
<path d="M513.499 452.417C531.821 452.417 546.674 439.184 546.674 422.861C546.674 406.538 531.821 393.305 513.499 393.305C495.177 393.305 480.324 406.538 480.324 422.861C480.324 439.184 495.177 452.417 513.499 452.417Z" fill="#DBE3CC"/>
<path d="M561.753 294.384C566.084 294.384 569.595 289.523 569.595 283.526C569.595 277.53 566.084 272.669 561.753 272.669C557.423 272.669 553.912 277.53 553.912 283.526C553.912 289.523 557.423 294.384 561.753 294.384Z" fill="#DBE3CC"/>
<defs>
<radialGradient id="paint0_radial" cx="0" cy="0" r="1" gradientUnits="userSpaceOnUse" gradientTransform="translate(555.905 391.411) rotate(42.0459) scale(2009.62 1999.14)">
<stop stop-color="#D0E3B5"/>
<stop offset="0.692708" stop-color="#134E7E"/>
</radialGradient>
</defs>
</svg>
