<svg width="3439" height="728" viewBox="0 0 3439 728" fill="none" xmlns="http://www.w3.org/2000/svg">
<path d="M473.596 285.818L420.99 230.919L372.892 222.685L314.275 184.255L160.966 263.858L129.402 314.639L18.1779 369.539L0 385.229V560.056L54.1221 616.705L658.468 554.823L473.596 285.818Z" fill="#58819A"/>
<path d="M314.275 184.255L271.788 252.812L293.032 275.197L256.347 305L271.788 325.563L160.333 358.208L101.091 441.449L129.691 462.67L81.6836 530.757L54.1053 616.565L224.683 596.046L658.468 554.823L473.596 285.818L420.99 230.919L372.893 222.685L314.275 184.255Z" fill="#96CCD7"/>
<path d="M1023.17 409.06L1164.54 287.052L1307.83 216.323L1348.5 150.898L1546.02 48.3392L1621.54 97.8503L1683.5 108.46L1751.28 179.189L1989.46 525.765L1210.84 605.493" fill="#BAE0E5"/>
<path d="M1546.02 48.3392L1491.28 136.666L1518.65 165.506L1471.38 203.902L1491.28 230.396L1347.68 272.454L1271.36 379.699L1308.2 407.039L1246.35 494.76L1210.82 605.312L1430.59 578.876L1989.46 525.765L1751.28 179.189L1683.5 108.46L1621.54 97.8503L1546.02 48.3392Z" fill="#58819A"/>
<path d="M1430.93 613.771L875.709 670.624L162.797 513.931L312.556 354.39L379.635 300.259L487.273 257.983L515.352 216.216L638.592 125.049L682.271 170.632L704.111 204.819L811.749 266.072L844.509 286.015L924.068 239.72L963.068 190.575L1002.07 221.914L1041.07 267.496L1164.3 333.022L1279.74 455.527" fill="#58819A"/>
<path d="M638.592 125.049L663.478 193.533L638.592 219.36L663.478 224.526V251.645L592.768 286.512V327.836L613.981 295.551L673.378 280.055L687.521 311.049L725.705 333.002V356.247L700.249 361.412L676.207 388.531L725.705 378.2L666.307 429.856L671.965 473.763L618.224 509.921L613.981 564.159L627.332 616.032L162.797 513.931L312.556 354.39L379.635 300.259L487.273 257.983L515.352 216.216L638.592 125.049Z" fill="#CCE7E6"/>
<path d="M963.068 190.575L1009.95 263.904L996.687 288.128H1019.6L1029.24 325.564L996.156 353.091L1003.92 364.101L989.453 379.517H1048.54L1132.94 494.028V518.251L1145 527.06L1092.85 648.389L955.689 506.14L868.871 370.541V312.351L844.509 286.015L924.068 239.719L963.068 190.575Z" fill="#CCE7E6"/>
<path d="M2979.05 300.816L2896.73 234.392L2753.27 178.046L2715.85 122.38L2551.6 0.876648L2493.39 61.6282L2464.28 107.192L2320.82 188.828L2277.16 215.407L2171.13 153.705L2119.15 88.2071L2067.17 129.974L2015.2 190.726L1850.95 278.057L1697.09 441.327L1495.6 652.229L2235.58 728L2979.05 564.592V300.816Z" fill="#CCE7E6"/>
<path d="M2979.05 564.592V300.816L2896.73 234.392L2753.27 178.046L2715.85 122.38L2551.6 0.876648L2518.43 92.1493L2621.66 199.272L2518.43 133.456L2417.47 228.511L2371 298.318L2435.5 309.009L2469.43 315.893L2501.47 352.037L2435.5 338.268L2514.66 407.112L2507.12 465.63L2578.75 513.821L2584.4 586.108L2566.61 655.243L2979.05 564.592Z" fill="#355365"/>
<path d="M2119.15 88.2072L2056.67 185.938L2133.44 273.082L2043.81 218.222L2030.95 268.116L2075.05 304.803L2026.9 328.059L2076.92 394.167L1953.93 376.032L1892.75 492.639V524.924L1876.67 536.664L1946.18 698.366L2128.98 508.781L2244.69 328.059V250.507L2277.16 215.407L2171.13 153.705L2119.15 88.2072Z" fill="#355365"/>
<path d="M2632.6 496.63L2773.97 374.622L2917.26 303.892L2957.93 238.467L3155.45 135.909L3230.97 185.42L3292.93 196.029L3360.71 266.759L3598.89 613.335L2820.28 693.063" fill="#CCE7E6"/>
<path d="M3155.45 135.909L3100.71 224.235L3128.08 253.075L3080.81 291.472L3100.71 317.965L2957.11 360.023L2880.79 467.269L2917.63 494.609L2855.78 582.33L2820.25 692.882L3040.02 666.446L3598.89 613.335L3360.71 266.759L3292.93 196.029L3230.97 185.42L3155.45 135.909Z" fill="#355365"/>
</svg>
