<svg width="1968" height="467" viewBox="0 0 1968 467" fill="none" xmlns="http://www.w3.org/2000/svg">
<g opacity="0.42">
<path opacity="0.42" d="M1497 357.121C1451 331.121 1400 329.121 1349 317.121C1347 316.121 1343 313.121 1345 311.121C1361 298.121 1384 302.121 1398 290.121C1402 286.121 1391 281.121 1386 280.121C1344 266.121 1302 261.121 1258 253.121C1255 252.121 1250 249.121 1251 248.121C1257.5 237.291 1269.57 234.085 1282.44 232.151C1290.87 230.885 1291.14 218.742 1282.78 217.073C1231.96 206.93 1161.63 209.125 1107.54 205.109C1096.05 204.256 1095 187.762 1106.29 185.494C1130.84 180.565 1159.66 177.805 1170.46 175.62C1176.61 174.377 1176.52 165.529 1170.36 164.407C1130.17 157.1 1088.09 162.274 1046 157.121C1044.61 156.657 1035.8 156.841 1026.46 156.972C1019.68 157.067 1018.52 147.303 1025.14 145.812C1045.17 141.302 1071.81 139.718 1081 135.121C1071 129.121 1059 130.121 1048 129.121C1014.7 124.126 922.731 134.079 883.602 130.906C876.334 130.317 875.661 119.9 882.816 118.491C899.109 115.282 959.111 111.505 966.001 107.121V104.121C941.388 95.0965 883.01 99.7394 846.272 96.1754C838.568 95.4284 837.901 84.5034 845.458 82.8264C857.829 80.0794 873.996 78.4105 888.017 77.1515C894.019 76.6125 894.203 67.9435 888.235 67.1095C859.075 63.0345 820.263 67.5675 787.778 63.7865C780.674 62.9595 780.201 52.8785 787.19 51.3585C798.108 48.9845 810.505 48.2554 817.001 44.1224C786.001 35.1224 754.001 35.1224 722.001 34.1224C721.001 34.1224 715.001 33.1224 717.001 32.1224C724.001 26.1224 734.001 27.1224 743.001 24.1224C717.001 18.1224 690.001 21.1224 664.001 19.1224C670.001 13.1224 679.001 17.1224 685.001 13.1224C676.001 5.12244 664.001 7.12244 654.001 1.12244C654.237 0.819437 654.492 0.540488 654.739 0.250488L626.304 0.00549316C630.587 3.96849 636.833 4.12044 641.001 9.12244C632.001 10.1224 624.001 10.1224 615.001 10.1224C625.001 16.1224 638.001 14.1224 646.001 24.1224C628.001 28.1224 601.001 22.1224 589.001 33.1224C615.001 38.1224 640.001 44.1224 666.001 45.1224C667.001 45.1224 677.001 45.1224 673.001 49.1224C667.001 55.1224 656.001 51.1224 647.001 55.1224C669.252 57.5064 703.452 51.8294 729.606 55.4194C734.241 56.0554 734.388 62.7215 729.792 63.5985C712.282 66.9385 691.218 71.5934 679.196 76.4034C674.331 78.3494 675.515 85.5625 680.742 85.9275C713.721 88.2285 747.067 86.8794 779.001 96.1234C783.001 97.1234 789.001 101.123 787.001 101.123C755.273 114.404 722.457 123.33 688.953 129.508C683.03 130.6 683.45 139.219 689.449 139.747C703.64 140.995 753.021 138.529 789.034 140.407C797.491 140.848 797.907 153.183 789.503 154.227C759.926 157.904 721.048 160.662 696.869 166.196C692.663 167.159 693.319 173.342 697.634 173.377C744.089 173.751 790.545 172.864 837 178.123C840 179.123 849 183.123 848 183.123C811.861 202.346 765.672 207.97 727.615 222.272C719.212 225.43 721.345 237.84 730.32 237.949C753.955 238.235 790.963 238.083 822.799 239.407C828.917 239.662 829.497 248.5 823.464 249.547C785.735 256.099 741.194 263.842 715 279.123C713 279.123 719 282.123 723 283.123C758 287.123 795 281.123 827 298.123C788 316.123 747 326.123 704 337.123C696 339.123 685 341.123 683 347.123C680 352.123 691 350.123 695 351.123C719 355.123 742 351.123 765 358.123C770 360.123 786 367.123 775 372.123C747.886 385.32 720.195 396.904 692.33 407.857C953.999 433.93 1216 455.779 1478.16 466.547C1469.95 460.386 1462.49 453.416 1457 444.123C1437 412.123 1486 400.123 1502 380.123C1508 372.121 1506 362.121 1497 357.121Z" fill="#E5EDD4"/>
</g>
<path d="M934.459 103.547C922.098 103.868 909.805 104.948 897.573 106.751C895.88 107.001 896.316 109.719 897.972 109.698C911 109.534 923.961 108.531 936.865 106.737C938.59 106.497 938.089 103.837 936.466 103.792C929.475 103.594 922.597 104.145 915.722 105.409C913.826 105.757 914.629 108.649 916.519 108.302C923.136 107.086 929.744 106.601 936.465 106.792C936.332 105.81 936.199 104.828 936.066 103.846C923.431 105.603 910.725 106.539 897.97 106.699C898.103 107.681 898.236 108.664 898.369 109.646C910.335 107.882 922.367 106.861 934.457 106.547C936.386 106.496 936.394 103.497 934.459 103.547Z" fill="#155B6F"/>
<path d="M927.92 139.625C907.968 139.607 888.016 139.588 868.064 139.57C866.13 139.568 866.135 142.516 868.064 142.57C886.271 143.076 904.483 143.139 922.693 142.757C924.621 142.717 924.627 139.716 922.693 139.757C904.483 140.139 886.271 140.077 868.064 139.57C868.064 140.57 868.064 141.57 868.064 142.57C888.016 142.588 907.968 142.607 927.92 142.625C929.85 142.627 929.854 139.627 927.92 139.625Z" fill="#155B6F"/>
<path d="M1022.19 139.482C1008.11 139.784 994.04 140.422 979.99 141.397C978.081 141.53 978.048 144.489 979.99 144.397C995.064 143.684 1010.12 142.649 1025.15 141.291C1027.05 141.119 1027.07 138.117 1025.15 138.291C1010.12 139.649 995.064 140.685 979.99 141.397C979.99 142.397 979.99 143.397 979.99 144.397C994.04 143.422 1008.11 142.783 1022.19 142.482C1024.12 142.441 1024.12 139.441 1022.19 139.482Z" fill="#155B6F"/>
<path d="M1139.79 170.955C1133.11 170.767 1126.43 170.579 1119.74 170.391C1117.81 170.337 1117.81 173.337 1119.74 173.391C1126.43 173.579 1133.11 173.767 1139.79 173.955C1141.72 174.009 1141.72 171.009 1139.79 170.955Z" fill="#155B6F"/>
<path d="M877.786 182.424C890.719 182.382 903.652 182.341 916.584 182.299C918.514 182.293 918.518 179.293 916.584 179.299C903.651 179.341 890.718 179.382 877.786 179.424C875.855 179.43 875.852 182.43 877.786 182.424Z" fill="#155B6F"/>
<path d="M948.412 182.111C953.352 182.275 958.292 182.44 963.233 182.604C965.164 182.668 965.162 179.668 963.233 179.604C958.293 179.439 953.353 179.275 948.412 179.111C946.481 179.047 946.484 182.047 948.412 182.111Z" fill="#155B6F"/>
<path d="M785.802 221.902C798.009 221.039 810.217 220.175 822.424 219.312C824.339 219.177 824.354 216.176 822.424 216.312C810.217 217.175 798.009 218.039 785.802 218.902C783.887 219.037 783.872 222.038 785.802 221.902Z" fill="#155B6F"/>
<path d="M870.814 218.166C894.066 217.755 917.32 217.999 940.559 218.897C942.49 218.971 942.486 215.971 940.559 215.897C917.32 215 894.067 214.756 870.814 215.166C868.886 215.2 868.88 218.2 870.814 218.166Z" fill="#155B6F"/>
<path d="M853.155 265.278C860.551 264.516 867.921 264.461 875.328 265.112C877.022 265.261 877.352 262.56 875.727 262.166C869.902 260.753 864.078 262.877 858.261 261.661C856.377 261.267 855.572 264.158 857.463 264.554C863.293 265.773 869.152 263.658 874.929 265.059C875.062 264.077 875.195 263.095 875.328 262.112C867.921 261.461 860.551 261.516 853.155 262.278C851.253 262.474 851.233 265.476 853.155 265.278Z" fill="#155B6F"/>
<path d="M852.871 88.1925C848.917 87.9545 844.962 87.7175 841.007 87.4795C839.079 87.3635 839.085 90.3645 841.007 90.4795C844.962 90.7175 848.916 90.9545 852.871 91.1925C854.8 91.3085 854.793 88.3075 852.871 88.1925Z" fill="#155B6F"/>
<path d="M703.035 79.0835C710.533 79.1905 717.993 78.8245 725.445 77.9865C727.342 77.7725 727.364 74.7705 725.445 74.9865C717.993 75.8255 710.533 76.1905 703.035 76.0835C701.104 76.0555 701.103 79.0555 703.035 79.0835Z" fill="#155B6F"/>
<path d="M753.119 73.7794C752.781 73.8474 752.442 73.9155 752.104 73.9835C750.38 74.3305 750.881 76.8505 752.503 76.9295C756.255 77.1145 760.007 77.2895 763.76 77.4555C765.69 77.5405 765.686 74.5405 763.76 74.4555C760.007 74.2895 756.255 74.1145 752.503 73.9295C752.636 74.9115 752.769 75.8935 752.902 76.8755C753.241 76.8075 753.579 76.7395 753.917 76.6715C755.808 76.2915 755.008 73.3994 753.119 73.7794Z" fill="#155B6F"/>
<path d="M788.06 75.9814C802.136 75.2454 816.178 74.0775 830.183 72.4785C832.079 72.2615 832.101 69.2595 830.183 69.4785C816.179 71.0775 802.137 72.2454 788.06 72.9814C786.139 73.0814 786.128 76.0824 788.06 75.9814Z" fill="#155B6F"/>
<path d="M846.133 71.7915C848.537 71.7915 850.941 71.7915 853.345 71.7915C855.275 71.7915 855.279 68.7915 853.345 68.7915C850.941 68.7915 848.537 68.7915 846.133 68.7915C844.202 68.7915 844.199 71.7915 846.133 71.7915Z" fill="#155B6F"/>
<path d="M769.072 61.8564C774.517 61.1304 779.962 60.4035 785.406 59.6775C787.292 59.4255 787.317 56.4225 785.406 56.6775C779.961 57.4035 774.517 58.1304 769.072 58.8564C767.187 59.1084 767.162 62.1114 769.072 61.8564Z" fill="#155B6F"/>
<path d="M745.175 52.6484C733.788 53.0324 722.398 53.1504 711.006 53.0024C709.075 52.9774 709.074 55.9774 711.006 56.0024C722.399 56.1504 733.788 56.0324 745.175 55.6484C747.1 55.5834 747.109 52.5824 745.175 52.6484Z" fill="#155B6F"/>
<path d="M762.636 51.6174C763.897 51.7794 765.157 51.9424 766.418 52.1054C767.223 52.2094 767.918 51.3414 767.918 50.6054C767.918 49.7084 767.225 49.2094 766.418 49.1054C765.157 48.9434 763.897 48.7804 762.636 48.6174C761.831 48.5134 761.136 49.3814 761.136 50.1174C761.136 51.0144 761.829 51.5134 762.636 51.6174Z" fill="#155B6F"/>
<path d="M695.446 34.9724C702.14 34.4254 708.841 34.0684 715.556 33.8994C717.483 33.8514 717.49 30.8504 715.556 30.8994C708.842 31.0684 702.14 31.4254 695.446 31.9724C693.535 32.1284 693.518 35.1304 695.446 34.9724Z" fill="#155B6F"/>
<path d="M638.51 34.1904C646.992 33.6274 655.473 33.0654 663.955 32.5024C665.871 32.3754 665.886 29.3744 663.955 29.5024C655.473 30.0654 646.992 30.6274 638.51 31.1904C636.593 31.3174 636.579 34.3184 638.51 34.1904Z" fill="#155B6F"/>
<path d="M644.964 14.8695C648.415 14.8855 651.826 14.5975 655.232 14.0465C657.133 13.7395 656.326 10.8485 654.434 11.1535C651.295 11.6605 648.142 11.8836 644.963 11.8686C643.033 11.8606 643.03 14.8605 644.964 14.8695Z" fill="#155B6F"/>
<path d="M646.102 6.12646C646.861 6.12646 647.62 6.12646 648.379 6.12646C649.164 6.12646 649.915 5.43646 649.879 4.62646C649.843 3.81346 649.22 3.12646 648.379 3.12646C647.62 3.12646 646.861 3.12646 646.102 3.12646C645.317 3.12646 644.566 3.81646 644.602 4.62646C644.639 5.43946 645.261 6.12646 646.102 6.12646Z" fill="#155B6F"/>
<path d="M662.044 26.2735C665.746 26.2775 669.405 25.9525 673.054 25.3335C674.953 25.0115 674.148 22.1205 672.256 22.4405C668.872 23.0135 665.475 23.2775 662.044 23.2725C660.113 23.2715 660.11 26.2715 662.044 26.2735Z" fill="#155B6F"/>
<path d="M994.674 265.353C1025.6 264.369 1056.53 263.384 1087.45 262.4C1089.38 262.339 1089.39 259.338 1087.45 259.4C1056.53 260.384 1025.6 261.369 994.674 262.353C992.748 262.415 992.74 265.415 994.674 265.353Z" fill="#155B6F"/>
<path d="M1143.72 242.696C1152.97 243.083 1162.22 243.47 1171.47 243.856C1173.4 243.937 1173.4 240.937 1171.47 240.856C1162.22 240.469 1152.97 240.082 1143.72 239.696C1141.79 239.615 1141.79 242.615 1143.72 242.696Z" fill="#155B6F"/>
<path opacity="0.42" d="M368.234 45.1315H452.97" stroke="white" stroke-width="4" stroke-miterlimit="10" stroke-linecap="round"/>
<path opacity="0.42" d="M566.406 45.1315H887.298" stroke="white" stroke-width="4" stroke-miterlimit="10" stroke-linecap="round"/>
<path opacity="0.42" d="M1033.02 45.1315H1146.1" stroke="white" stroke-width="4" stroke-miterlimit="10" stroke-linecap="round"/>
<path opacity="0.42" d="M1315.44 45.1315H1511.66" stroke="white" stroke-width="4" stroke-miterlimit="10" stroke-linecap="round"/>
<path opacity="0.42" d="M1722.85 45.1315H1846.28" stroke="white" stroke-width="4" stroke-miterlimit="10" stroke-linecap="round"/>
<path opacity="0.42" d="M1926.44 45.1315H1965.03" stroke="white" stroke-width="4" stroke-miterlimit="10" stroke-linecap="round"/>
<path opacity="0.42" d="M2.71509 45.1315H41.3021" stroke="white" stroke-width="4" stroke-miterlimit="10" stroke-linecap="round"/>
<path opacity="0.42" d="M128.937 45.1315H267.559" stroke="white" stroke-width="4" stroke-miterlimit="10" stroke-linecap="round"/>
<path opacity="0.42" d="M223.859 83.0005H351" stroke="white" stroke-width="4" stroke-miterlimit="10" stroke-linecap="round"/>
<path opacity="0.42" d="M608.774 83.0005H638.429" stroke="white" stroke-width="4" stroke-miterlimit="10" stroke-linecap="round"/>
<path opacity="0.42" d="M876.386 83.0005H960.369" stroke="white" stroke-width="4" stroke-miterlimit="10" stroke-linecap="round"/>
<path opacity="0.42" d="M1128.31 83.0005H1163.9" stroke="white" stroke-width="4" stroke-miterlimit="10" stroke-linecap="round"/>
<path opacity="0.42" d="M1466.01 83.0005H1606.68" stroke="white" stroke-width="4" stroke-miterlimit="10" stroke-linecap="round"/>
<path opacity="0.42" d="M1784.53 83.0005H1819.2" stroke="white" stroke-width="4" stroke-miterlimit="10" stroke-linecap="round"/>
<path opacity="0.42" d="M339.467 120.869H368.234" stroke="white" stroke-width="4" stroke-miterlimit="10" stroke-linecap="round"/>
<path opacity="0.42" d="M425.215 120.869H519.021" stroke="white" stroke-width="4" stroke-miterlimit="10" stroke-linecap="round"/>
<path opacity="0.42" d="M732.034 120.869H771.387" stroke="white" stroke-width="4" stroke-miterlimit="10" stroke-linecap="round"/>
<path opacity="0.42" d="M1086.83 120.869H1219.66" stroke="white" stroke-width="4" stroke-miterlimit="10" stroke-linecap="round"/>
<path opacity="0.42" d="M1347.14 120.869H1374.7" stroke="white" stroke-width="4" stroke-miterlimit="10" stroke-linecap="round"/>
<path opacity="0.42" d="M1572.5 120.869H1640.87" stroke="white" stroke-width="4" stroke-miterlimit="10" stroke-linecap="round"/>
<path opacity="0.42" d="M368.234 158.737H430.153" stroke="white" stroke-width="4" stroke-miterlimit="10" stroke-linecap="round"/>
<path opacity="0.42" d="M1205.12 158.737H1291.02" stroke="white" stroke-width="4" stroke-miterlimit="10" stroke-linecap="round"/>
<path opacity="0.42" d="M1465.92 158.737H1501.7" stroke="white" stroke-width="4" stroke-miterlimit="10" stroke-linecap="round"/>
<path opacity="0.42" d="M1059.06 158.737H1094.83" stroke="white" stroke-width="4" stroke-miterlimit="10" stroke-linecap="round"/>
<path opacity="0.42" d="M683.284 158.737H964.846" stroke="white" stroke-width="4" stroke-miterlimit="10" stroke-linecap="round"/>
<path opacity="0.42" d="M498.18 196.606H698.913" stroke="white" stroke-width="4" stroke-miterlimit="10" stroke-linecap="round"/>
<path opacity="0.42" d="M758.985 196.606H825.839" stroke="white" stroke-width="4" stroke-miterlimit="10" stroke-linecap="round"/>
<path opacity="0.42" d="M1351.62 196.606H1367.91" stroke="white" stroke-width="4" stroke-miterlimit="10" stroke-linecap="round"/>
<path opacity="0.42" d="M922.708 196.606H1231.19" stroke="white" stroke-width="4" stroke-miterlimit="10" stroke-linecap="round"/>
<path opacity="0.42" d="M640.024 234.475H964.846" stroke="white" stroke-width="4" stroke-miterlimit="10" stroke-linecap="round"/>
<path opacity="0.42" d="M1019 234.475H1086.83" stroke="white" stroke-width="4" stroke-miterlimit="10" stroke-linecap="round"/>
<path opacity="0.42" d="M1208.13 234.475H1231.19" stroke="white" stroke-width="4" stroke-miterlimit="10" stroke-linecap="round"/>
</svg>
